<svg width="20" height="20" viewBox="0 0 20 20" fill="none" xmlns="http://www.w3.org/2000/svg">
<path d="M18.5156 12.5628V8.68714C18.681 8.63287 18.8332 8.54465 18.9625 8.42814C19.0918 8.31163 19.1954 8.1694 19.2665 8.01055C19.3376 7.8517 19.3748 7.67975 19.3757 7.5057C19.3765 7.33165 19.341 7.15934 19.2714 6.99982C19.2018 6.8403 19.0996 6.69707 18.9714 6.57932C18.8432 6.46157 18.6919 6.3719 18.527 6.31603C18.3622 6.26017 18.1875 6.23936 18.0141 6.25492C17.8408 6.27049 17.6726 6.3221 17.5203 6.40643L14.8518 3.7146C14.9336 3.56185 14.9827 3.39377 14.996 3.22104C15.0093 3.0483 14.9866 2.87468 14.9293 2.7112C14.8719 2.54772 14.7812 2.39794 14.6629 2.27139C14.5446 2.14484 14.4012 2.04427 14.242 1.97606C14.0827 1.90786 13.911 1.87352 13.7377 1.87522C13.5645 1.87691 13.3935 1.91461 13.2356 1.98592C13.0777 2.05722 12.9364 2.16058 12.8206 2.28942C12.7047 2.41827 12.617 2.56979 12.5628 2.73436H7.74964C7.69617 2.57093 7.60956 2.42028 7.49521 2.29185C7.38086 2.16342 7.24123 2.05997 7.08507 1.98797C6.9289 1.91598 6.75956 1.87699 6.58764 1.87344C6.41572 1.86989 6.24491 1.90185 6.08591 1.96734C5.9269 2.03283 5.78313 2.13043 5.66357 2.25403C5.54402 2.37763 5.45126 2.52457 5.39109 2.68566C5.33093 2.84675 5.30466 3.01853 5.31393 3.19024C5.32319 3.36195 5.3678 3.5299 5.44495 3.68358L2.74608 6.38222C2.59087 6.30449 2.42117 6.25995 2.2478 6.25144C2.07443 6.24292 1.90118 6.27062 1.7391 6.33276C1.57703 6.3949 1.42967 6.49012 1.30643 6.61236C1.18319 6.7346 1.08676 6.88117 1.02329 7.04273C0.959829 7.2043 0.930716 7.37731 0.937812 7.55075C0.944908 7.72418 0.988057 7.89424 1.06451 8.05008C1.14096 8.20592 1.24904 8.34412 1.38185 8.45589C1.51467 8.56765 1.66931 8.65051 1.83592 8.69921V10.3633C1.66506 10.4132 1.50683 10.4991 1.37185 10.6152C1.23687 10.7313 1.12824 10.8748 1.05324 11.0363C0.978234 11.1977 0.93859 11.3734 0.936957 11.5514C0.935325 11.7294 0.971742 11.9057 1.04377 12.0685C1.1158 12.2313 1.22178 12.3768 1.35461 12.4954C1.48744 12.6139 1.64406 12.7027 1.81399 12.7558C1.98391 12.8089 2.16322 12.825 2.3399 12.8032C2.51658 12.7814 2.68656 12.7221 2.83846 12.6292L3.30217 13.1094C3.21042 13.263 3.15272 13.4345 3.13297 13.6123C3.11323 13.7902 3.1319 13.9702 3.18772 14.1402C3.24354 14.3102 3.33522 14.4662 3.45655 14.5977C3.57788 14.7292 3.72603 14.8332 3.89099 14.9025C4.05595 14.9718 4.23387 15.0049 4.41272 14.9995C4.59157 14.9941 4.76717 14.9504 4.92767 14.8713C5.08817 14.7922 5.2298 14.6796 5.34301 14.541C5.45622 14.4024 5.53835 14.2412 5.58385 14.0681L9.10827 14.0844C9.15441 14.2505 9.23444 14.4054 9.34332 14.5391C9.45221 14.6728 9.58759 14.7826 9.74095 14.8615C9.89431 14.9404 10.0623 14.9867 10.2345 14.9975C10.4066 15.0082 10.5791 14.9833 10.7411 14.9242L11.541 16.0744C11.4214 16.2175 11.3355 16.3856 11.2894 16.5663C11.2433 16.747 11.2382 16.9357 11.2745 17.1186C11.3108 17.3016 11.3876 17.474 11.4992 17.6234C11.6109 17.7728 11.7545 17.8953 11.9197 17.9819C12.0848 18.0685 12.2672 18.1171 12.4536 18.124C12.6399 18.131 12.8255 18.0962 12.9966 18.0221C13.1678 17.948 13.3201 17.8365 13.4426 17.6959C13.5651 17.5552 13.6545 17.389 13.7043 17.2093H15.9834C16.0374 17.4044 16.138 17.5834 16.2765 17.7311C16.4151 17.8787 16.5874 17.9904 16.7787 18.0567C16.97 18.123 17.1745 18.1418 17.3747 18.1116C17.5748 18.0813 17.7647 18.0029 17.9278 17.883C18.091 17.7631 18.2226 17.6055 18.3113 17.4235C18.4 17.2415 18.4432 17.0407 18.4371 16.8384C18.4311 16.636 18.3759 16.4382 18.2765 16.2618C18.177 16.0855 18.0362 15.936 17.8662 15.8261L18.1362 14.9996C18.4324 14.997 18.718 14.8892 18.9422 14.6955C19.1663 14.5019 19.3143 14.2349 19.3599 13.9422C19.4054 13.6495 19.3456 13.3502 19.1909 13.0976C19.0363 12.8449 18.797 12.6554 18.5156 12.5628ZM12.5 15.625C12.3455 15.6249 12.1924 15.6537 12.0485 15.7097L11.2555 14.5693C11.3759 14.4311 11.4644 14.2681 11.5148 14.0918L16.9253 14.0996C16.9277 14.1081 16.9301 14.1166 16.9327 14.125L13.4243 16.0344C13.3073 15.9054 13.1647 15.8023 13.0055 15.7318C12.8463 15.6613 12.6741 15.6249 12.5 15.625ZM9.54624 12.7634L7.08206 10.8142C7.10251 10.7678 7.12009 10.7201 7.13471 10.6715H9.42768C9.48431 10.8588 9.58393 11.0303 9.71859 11.1723C9.85326 11.3142 10.0192 11.4227 10.2033 11.4892L10.1169 12.5156C9.90874 12.5486 9.71239 12.6338 9.54624 12.7634ZM4.37499 12.5C4.1542 12.4998 3.93736 12.5585 3.74678 12.67L3.27362 12.18C3.38116 11.992 3.43766 11.7791 3.43749 11.5625C3.43742 11.5157 3.43473 11.4689 3.42944 11.4224L4.89546 11.0019C4.97537 11.1222 5.07536 11.2279 5.19108 11.3144L4.60479 12.5214C4.52901 12.5072 4.45208 12.5 4.37499 12.5ZM2.99069 8.45679L4.78655 9.82487C4.72101 9.97907 4.68731 10.1449 4.68749 10.3125C4.68749 10.3454 4.68917 10.3779 4.69167 10.4101L3.20432 10.8368C3.02556 10.5865 2.76095 10.4107 2.46092 10.343V8.71948C2.65603 8.67568 2.83773 8.58558 2.99069 8.45679ZM6.56249 4.37499C6.64001 4.37491 6.71736 4.36763 6.79354 4.35323L7.36717 5.56944C7.10884 5.76647 6.93731 6.0563 6.88889 6.37757L3.29905 6.92905C3.27503 6.88237 3.2481 6.83724 3.21842 6.79393L5.85663 4.15581C6.06424 4.29876 6.31042 4.37521 6.56249 4.37499ZM9.34983 6.81249H10.9626C11.0237 7.10934 11.1903 7.37397 11.4317 7.55725L10.8047 9.07557C10.6022 9.046 10.3956 9.06674 10.2031 9.13597L9.07721 7.37108C9.2138 7.2109 9.30759 7.01872 9.34983 6.81249ZM13.75 4.37499C13.9905 4.37518 14.226 4.30552 14.4277 4.17448L17.0664 6.83636C17.0316 6.89151 17.0012 6.94932 16.9754 7.00925L13.4258 6.39397C13.3818 6.07277 13.2148 5.7812 12.9599 5.58085L13.5092 4.35155C13.5885 4.36714 13.6692 4.37499 13.75 4.37499ZM16.9059 13.4746L11.5298 13.4667C11.5177 13.4146 11.5023 13.3633 11.4836 13.3132L14.2297 11.2957C14.4152 11.4417 14.6384 11.5319 14.8733 11.556C15.1082 11.58 15.345 11.5368 15.5563 11.4314L17.0854 13.057C17.0004 13.184 16.9396 13.3255 16.9059 13.4746ZM11.8462 10.0465C11.7825 9.75599 11.6175 9.49765 11.3808 9.31772L12.0078 7.7994C12.0673 7.80806 12.1274 7.81244 12.1875 7.81249C12.3601 7.81256 12.5309 7.77664 12.6889 7.70702L14.011 9.54929C13.8976 9.69565 13.8182 9.86546 13.7788 10.0464L11.8462 10.0465ZM10.625 10.9375C10.5014 10.9375 10.3805 10.9008 10.2778 10.8322C10.175 10.7635 10.0949 10.6659 10.0476 10.5517C10.0003 10.4375 9.98788 10.3118 10.012 10.1906C10.0361 10.0693 10.0956 9.95795 10.183 9.87055C10.2705 9.78314 10.3818 9.72361 10.5031 9.6995C10.6243 9.67538 10.75 9.68776 10.8642 9.73506C10.9784 9.78237 11.076 9.86248 11.1447 9.96526C11.2133 10.068 11.25 10.1889 11.25 10.3125C11.2498 10.4782 11.1839 10.637 11.0667 10.7542C10.9495 10.8714 10.7907 10.9373 10.625 10.9375ZM9.40378 10.0465H7.1587C7.11141 9.82989 7.00728 9.62981 6.85702 9.46682L7.80182 7.76991C8.05427 7.83762 8.32161 7.82431 8.56608 7.73186L9.68635 9.48827C9.54625 9.6473 9.449 9.83941 9.40378 10.0465ZM5.16721 9.32913L3.35417 7.94796C3.40432 7.81765 3.43214 7.67982 3.43647 7.54026L6.95413 6.99999C7.0198 7.17465 7.12365 7.33245 7.25807 7.46186L6.33124 9.12639C6.13559 9.06118 5.92681 9.04557 5.72364 9.08095C5.52046 9.11634 5.32926 9.20161 5.16717 9.32913H5.16721ZM15.625 10.3125C15.625 10.4361 15.5883 10.5569 15.5197 10.6597C15.451 10.7625 15.3534 10.8426 15.2392 10.8899C15.125 10.9372 14.9993 10.9496 14.8781 10.9255C14.7568 10.9014 14.6455 10.8418 14.558 10.7544C14.4706 10.667 14.4111 10.5557 14.387 10.4344C14.3629 10.3132 14.3753 10.1875 14.4226 10.0733C14.4699 9.95911 14.55 9.8615 14.6528 9.79282C14.7555 9.72414 14.8764 9.68749 15 9.68749C15.1657 9.68768 15.3245 9.7536 15.4417 9.87076C15.5589 9.98793 15.6248 10.1468 15.625 10.3125ZM15.7215 9.29296C15.5468 9.16879 15.343 9.09181 15.1298 9.06945C14.9166 9.0471 14.7012 9.08012 14.5045 9.16534L13.1806 7.3203C13.2518 7.22729 13.3095 7.12472 13.3521 7.01561L16.8814 7.62729C16.8996 7.80612 16.9565 7.97885 17.048 8.13354L15.7215 9.29296ZM12.8125 6.56249C12.8125 6.6861 12.7758 6.80694 12.7072 6.90972C12.6385 7.0125 12.5409 7.09261 12.4267 7.13991C12.3125 7.18722 12.1868 7.1996 12.0656 7.17548C11.9443 7.15136 11.833 7.09184 11.7455 7.00443C11.6581 6.91702 11.5986 6.80566 11.5745 6.68442C11.5504 6.56318 11.5628 6.43752 11.6101 6.32331C11.6574 6.20911 11.7375 6.1115 11.8403 6.04282C11.943 5.97414 12.0639 5.93749 12.1875 5.93749C12.3532 5.93769 12.512 6.0036 12.6292 6.12076C12.7464 6.23793 12.8123 6.39679 12.8125 6.56249ZM8.12499 7.18749C8.00137 7.18749 7.88054 7.15083 7.77775 7.08216C7.67497 7.01348 7.59487 6.91587 7.54756 6.80167C7.50026 6.68746 7.48788 6.5618 7.512 6.44056C7.53611 6.31932 7.59564 6.20796 7.68304 6.12055C7.77045 6.03314 7.88182 5.97361 8.00305 5.9495C8.12429 5.92538 8.24996 5.93776 8.36416 5.98506C8.47837 6.03237 8.57598 6.11248 8.64465 6.21526C8.71333 6.31804 8.74999 6.43888 8.74999 6.56249C8.74979 6.72819 8.68388 6.88705 8.56671 7.00421C8.44954 7.12138 8.29069 7.18729 8.12499 7.18749ZM5.31249 10.3125C5.31249 10.1889 5.34914 10.068 5.41782 9.96526C5.48649 9.86248 5.58411 9.78237 5.69831 9.73506C5.81251 9.68776 5.93818 9.67538 6.05942 9.6995C6.18066 9.72361 6.29202 9.78314 6.37943 9.87055C6.46684 9.95795 6.52636 10.0693 6.55048 10.1906C6.57459 10.3118 6.56222 10.4375 6.51491 10.5517C6.46761 10.6659 6.3875 10.7635 6.28472 10.8322C6.18194 10.9008 6.0611 10.9375 5.93749 10.9375C5.77179 10.9373 5.61293 10.8714 5.49576 10.7542C5.37859 10.637 5.31268 10.4782 5.31249 10.3125ZM10.8258 11.5462C11.057 11.508 11.273 11.4059 11.4491 11.2513C11.6252 11.0967 11.7545 10.8958 11.8222 10.6715H13.8027C13.8157 10.7151 13.8311 10.7579 13.8489 10.7998L11.125 12.8012C11.011 12.7032 10.8803 12.6266 10.7391 12.575L10.8258 11.5462ZM17.5511 12.6399L16.0287 11.0214C16.1541 10.8399 16.2292 10.6284 16.2463 10.4085C16.2633 10.1885 16.2217 9.96799 16.1257 9.76936L17.4908 8.57639C17.6143 8.64953 17.7496 8.70071 17.8906 8.72764V12.5223C17.7723 12.5449 17.658 12.5846 17.5511 12.6401V12.6399ZM18.75 7.49999C18.75 7.6236 18.7133 7.74444 18.6447 7.84722C18.576 7.95 18.4784 8.03011 18.3642 8.07741C18.25 8.12472 18.1243 8.1371 18.0031 8.11298C17.8818 8.08886 17.7705 8.02934 17.683 7.94193C17.5956 7.85452 17.5361 7.74316 17.512 7.62192C17.4879 7.50068 17.5003 7.37502 17.5476 7.26081C17.5949 7.14661 17.675 7.049 17.7778 6.98032C17.8805 6.91164 18.0014 6.87499 18.125 6.87499C18.2907 6.87519 18.4495 6.9411 18.5667 7.05826C18.6839 7.17543 18.7498 7.33429 18.75 7.49999ZM13.75 2.49999C13.8736 2.49999 13.9944 2.53664 14.0972 2.60532C14.2 2.674 14.2801 2.77161 14.3274 2.88581C14.3747 3.00002 14.3871 3.12568 14.363 3.24692C14.3389 3.36816 14.2793 3.47952 14.1919 3.56693C14.1045 3.65434 13.9932 3.71386 13.8719 3.73798C13.7507 3.7621 13.625 3.74972 13.5108 3.70241C13.3966 3.65511 13.299 3.575 13.2303 3.47222C13.1616 3.36944 13.125 3.2486 13.125 3.12499C13.1252 2.95929 13.1911 2.80043 13.3083 2.68326C13.4254 2.5661 13.5843 2.50019 13.75 2.49999ZM7.79014 3.35936H12.5223C12.5764 3.64129 12.7259 3.89602 12.9456 4.08077L12.388 5.32878C12.0913 5.2804 11.7872 5.34059 11.5313 5.49832C11.2755 5.65604 11.0851 5.90073 10.995 6.18749H9.31745C9.22833 5.90385 9.04101 5.66129 8.78912 5.50336C8.53722 5.34543 8.23728 5.28249 7.94315 5.32585L7.35921 4.08757C7.58309 3.90227 7.73546 3.64479 7.79014 3.35936ZM6.56249 2.49999C6.6861 2.49999 6.80694 2.53664 6.90972 2.60532C7.0125 2.674 7.09261 2.77161 7.13991 2.88581C7.18722 3.00002 7.19959 3.12568 7.17548 3.24692C7.15136 3.36816 7.09184 3.47952 7.00443 3.56693C6.91702 3.65434 6.80566 3.71386 6.68442 3.73798C6.56318 3.7621 6.43751 3.74972 6.32331 3.70241C6.20911 3.65511 6.11149 3.575 6.04282 3.47222C5.97414 3.36944 5.93749 3.2486 5.93749 3.12499C5.93768 2.95929 6.00359 2.80043 6.12076 2.68326C6.23793 2.5661 6.39679 2.50019 6.56249 2.49999ZM1.56249 7.49999C1.56249 7.37638 1.59914 7.25554 1.66782 7.15276C1.73649 7.04998 1.83411 6.96987 1.94831 6.92256C2.06251 6.87526 2.18818 6.86288 2.30942 6.887C2.43066 6.91111 2.54202 6.97064 2.62943 7.05805C2.71684 7.14545 2.77636 7.25682 2.80048 7.37806C2.82459 7.4993 2.81222 7.62496 2.76491 7.73917C2.71761 7.85337 2.6375 7.95098 2.53472 8.01966C2.43194 8.08833 2.3111 8.12499 2.18749 8.12499C2.02179 8.12479 1.86293 8.05888 1.74576 7.94171C1.62859 7.82455 1.56268 7.66569 1.56249 7.49999ZM2.18749 12.1875C2.06387 12.1875 1.94304 12.1508 1.84026 12.0822C1.73747 12.0135 1.65737 11.9159 1.61006 11.8017C1.56276 11.6875 1.55038 11.5618 1.5745 11.4406C1.59861 11.3193 1.65814 11.208 1.74554 11.1205C1.83295 11.0331 1.94432 10.9736 2.06555 10.9495C2.18679 10.9254 2.31246 10.9378 2.42666 10.9851C2.54087 11.0324 2.63848 11.1125 2.70715 11.2153C2.77583 11.318 2.81249 11.4389 2.81249 11.5625C2.81229 11.7282 2.74638 11.887 2.62921 12.0042C2.51204 12.1214 2.35319 12.1873 2.18749 12.1875ZM4.37499 14.375C4.25137 14.375 4.13054 14.3383 4.02776 14.2697C3.92497 14.201 3.84487 14.1034 3.79756 13.9892C3.75026 13.875 3.73788 13.7493 3.762 13.6281C3.78611 13.5068 3.84564 13.3955 3.93304 13.308C4.02045 13.2206 4.13182 13.1611 4.25305 13.137C4.37429 13.1129 4.49996 13.1253 4.61416 13.1726C4.72837 13.2199 4.82598 13.3 4.89465 13.4028C4.96333 13.5055 4.99999 13.6264 4.99999 13.75C4.99979 13.9157 4.93388 14.0745 4.81671 14.1917C4.69954 14.3089 4.54069 14.3748 4.37499 14.375ZM5.17077 12.7867L5.771 11.5511C5.82618 11.5586 5.8818 11.5624 5.93749 11.5625C6.21163 11.5627 6.47816 11.4723 6.69561 11.3054L9.16366 13.2578C9.13573 13.323 9.11342 13.3904 9.09698 13.4593L5.58674 13.4432C5.52121 13.1858 5.37553 12.9559 5.17077 12.7867ZM9.68749 13.75C9.68749 13.6264 9.72414 13.5055 9.79282 13.4028C9.86149 13.3 9.95911 13.2199 10.0733 13.1726C10.1875 13.1253 10.3132 13.1129 10.4344 13.137C10.5557 13.1611 10.667 13.2206 10.7544 13.308C10.8418 13.3955 10.9014 13.5068 10.9255 13.6281C10.9496 13.7493 10.9372 13.875 10.8899 13.9892C10.8426 14.1034 10.7625 14.201 10.6597 14.2697C10.5569 14.3383 10.4361 14.375 10.3125 14.375C10.1468 14.3748 9.98793 14.3089 9.87076 14.1917C9.75359 14.0745 9.68768 13.9157 9.68749 13.75ZM12.5 17.5C12.3764 17.5 12.2555 17.4633 12.1528 17.3947C12.05 17.326 11.9699 17.2284 11.9226 17.1142C11.8753 17 11.8629 16.8743 11.887 16.7531C11.9111 16.6318 11.9706 16.5205 12.058 16.433C12.1455 16.3456 12.2568 16.2861 12.3781 16.262C12.4993 16.2379 12.625 16.2503 12.7392 16.2976C12.8534 16.3449 12.951 16.425 13.0197 16.5278C13.0883 16.6305 13.125 16.7514 13.125 16.875C13.1248 17.0407 13.0589 17.1995 12.9417 17.3167C12.8245 17.4339 12.6657 17.4998 12.5 17.5ZM17.1875 17.5C17.0639 17.5 16.943 17.4633 16.8403 17.3947C16.7375 17.326 16.6574 17.2284 16.6101 17.1142C16.5628 17 16.5504 16.8743 16.5745 16.7531C16.5986 16.6318 16.6581 16.5205 16.7455 16.433C16.833 16.3456 16.9443 16.2861 17.0656 16.262C17.1868 16.2379 17.3125 16.2503 17.4267 16.2976C17.5409 16.3449 17.6385 16.425 17.7072 16.5278C17.7758 16.6305 17.8125 16.7514 17.8125 16.875C17.8123 17.0407 17.7464 17.1995 17.6292 17.3167C17.512 17.4339 17.3532 17.4998 17.1875 17.5ZM17.1875 15.625C16.9066 15.6254 16.6341 15.7202 16.4136 15.8942C16.1932 16.0682 16.0376 16.3113 15.972 16.5844H13.7211L17.2648 14.6557C17.3439 14.731 17.4325 14.7957 17.5283 14.8481L17.2734 15.6283C17.2449 15.6263 17.2164 15.625 17.1875 15.625ZM18.125 14.375C18.0014 14.375 17.8805 14.3383 17.7778 14.2697C17.675 14.201 17.5949 14.1034 17.5476 13.9892C17.5003 13.875 17.4879 13.7493 17.512 13.6281C17.5361 13.5068 17.5956 13.3955 17.683 13.308C17.7705 13.2206 17.8818 13.1611 18.0031 13.137C18.1243 13.1129 18.25 13.1253 18.3642 13.1726C18.4784 13.2199 18.576 13.3 18.6447 13.4028C18.7133 13.5055 18.75 13.6264 18.75 13.75C18.7498 13.9157 18.6839 14.0745 18.5667 14.1917C18.4495 14.3089 18.2907 14.3748 18.125 14.375Z" fill="white"/>
</svg>
