<svg width="94" height="16" viewBox="0 0 94 16" fill="none" xmlns="http://www.w3.org/2000/svg">
<g clip-path="url(#clip0_46_279)">
<path d="M93.859 13.328V8.28379C93.859 6.16589 92.6175 5.41937 90.3649 5.41937C88.0818 5.41937 86.9784 6.288 86.8865 7.91874H89.1391C89.17 7.49179 89.4152 7.17179 90.3649 7.17179C91.2075 7.17179 91.6064 7.4459 91.6064 7.85768C91.6064 8.22358 91.376 8.36042 90.8091 8.4219L89.3381 8.57347C87.3459 8.78737 86.4419 9.60968 86.4419 11.1032C86.4419 12.4897 87.3002 13.5566 89.1238 13.5566C90.3645 13.5566 91.1008 13.1608 91.744 12.368V13.328H93.859ZM91.6521 10.3415C91.6521 11.1794 90.8552 11.8042 89.6294 11.8042C89.0315 11.8042 88.6793 11.5297 88.6793 11.0118C88.6793 10.616 88.9248 10.2804 89.7061 10.1739L91.0394 9.99074C91.2689 9.96042 91.5145 9.91495 91.6521 9.86905V10.3415ZM81.2622 7.79663C81.2622 7.46147 81.5539 7.20253 82.3203 7.20253C83.1015 7.20253 83.3467 7.47663 83.4233 7.91874H85.6759C85.5684 6.25726 84.4349 5.41937 82.3203 5.41937C80.0368 5.41937 78.9486 6.50147 78.9486 7.96421C78.9486 9.48842 79.9292 10.1436 81.6305 10.3718L82.4427 10.4787C83.2395 10.5857 83.5461 10.768 83.5461 11.1642C83.5461 11.5912 83.1781 11.8042 82.2741 11.8042C81.3849 11.8042 80.9869 11.5297 80.9255 10.9663H78.6424C78.6882 12.5053 79.6231 13.5566 82.2741 13.5566C84.7105 13.5566 85.8601 12.5966 85.8601 10.9811C85.8601 9.38147 84.879 8.77179 82.9177 8.51284L82.1052 8.40632C81.4468 8.31453 81.2622 8.13179 81.2622 7.79663ZM75.7225 13.328H78.0361V8.83284C78.0361 6.30316 77.0097 5.41937 75.0018 5.41937C73.7612 5.41937 73.1024 5.93726 72.7806 6.53179V5.64758H70.6042V13.3276H72.9182V8.93979C72.9182 7.91916 73.439 7.46189 74.3129 7.46189C75.2783 7.46189 75.7229 7.91916 75.7229 8.93979V13.3284L75.7225 13.328ZM67.5369 13.328H69.6519V8.28379C69.6519 6.16589 68.4104 5.41937 66.1578 5.41937C63.8747 5.41937 62.7717 6.288 62.6794 7.91874H64.932C64.9625 7.49179 65.2081 7.17179 66.1578 7.17179C67.0004 7.17179 67.3993 7.4459 67.3993 7.85768C67.3993 8.22358 67.1693 8.36042 66.6024 8.4219L65.1314 8.57347C63.1392 8.78695 62.2352 9.60968 62.2352 11.1032C62.2352 12.4897 63.0931 13.5566 64.9163 13.5566C66.1578 13.5566 66.8937 13.1608 67.5369 12.368V13.328ZM67.4454 10.3415C67.4454 11.1794 66.6481 11.8042 65.4223 11.8042C64.8249 11.8042 64.4721 11.5297 64.4721 11.0118C64.4721 10.616 64.7173 10.2804 65.4989 10.1739L66.8323 9.99074C67.0622 9.96 67.3074 9.91495 67.4454 9.86905V10.3415ZM59.231 13.328H61.5454V8.83284C61.5454 6.30316 60.5186 5.41937 58.5573 5.41937C57.4691 5.41937 56.8408 5.83074 56.4428 6.39453V2.67663H54.1131V13.328H56.4271V8.93895C56.4271 7.91832 56.9479 7.46105 57.8214 7.46105C58.7868 7.46105 59.2314 7.91832 59.2314 8.93895V13.3276L59.231 13.328ZM52.3309 13.4648C52.8983 13.4648 53.4343 13.3432 53.4343 13.3432V11.4994C53.4343 11.4994 53.0511 11.5453 52.7755 11.5453C52.101 11.5453 51.6716 11.3318 51.6716 10.5095V7.52211H53.4343V5.648H51.6716V3.408H49.358V5.648H48.1936V7.52211H49.358V10.7684C49.358 12.6269 50.4771 13.4648 52.3309 13.4648ZM45.8949 7.52211H47.5958V5.648H45.8944V5.34316C45.8944 4.67284 46.2781 4.42905 46.9983 4.42905C47.2744 4.42905 47.5958 4.45937 47.5958 4.45937V2.60042C47.5958 2.60042 47.213 2.50905 46.6151 2.50905C44.7609 2.50905 43.5813 3.49937 43.5813 5.35832V5.648H42.4169V7.52211H43.5813V13.328H45.8944L45.8949 7.52211ZM39.6273 13.328H41.8033V5.648H39.4897V10.0366C39.4897 11.0577 38.9689 11.5145 38.1259 11.5145C37.191 11.5145 36.7464 11.0573 36.7464 10.0366V5.648H34.4328V10.1432C34.4328 12.6724 35.4596 13.5562 37.4361 13.5562C38.6471 13.5562 39.3055 13.0383 39.6273 12.4438V13.328ZM26.8167 13.328H33.912V11.1789H29.2992V2.66147H26.8167V13.328ZM16.0901 8C16.0901 3.568 12.502 0 8.04504 0C3.60418 0 0 3.568 0 8C0 12.416 3.60418 16 8.04504 16C12.502 16 16.0901 12.416 16.0901 8ZM15.5108 8C15.5108 12.08 12.1641 15.424 8.04504 15.424C3.94207 15.424 0.579243 12.0804 0.579243 8C0.579243 3.904 3.94207 0.576 8.04504 0.576C12.1641 0.576 15.5108 3.904 15.5108 8ZM10.893 7.52C10.716 7.52 10.4907 7.52 10.2011 7.536L10.4103 7.184H10.7482C11.9549 7.184 12.856 7.248 13.6766 7.392L14.0466 7.04C13.1295 6.88 12.0193 6.784 10.893 6.784H10.6195L10.7964 6.448H11.1022C12.2767 6.448 13.3387 6.544 14.3684 6.736L14.7546 6.368C13.5961 6.144 12.3572 6.03242 11.0217 6.03242C10.4523 6.03423 9.88323 6.06092 9.31616 6.11242C8.67256 7.488 7.64279 8.28842 6.48431 8.27242C6.03378 8.256 5.47021 8.06442 4.74658 7.68L4.07079 7.296L4.27996 7.104L5.8407 7.776L6.17859 7.52L3.02494 6.096L2.54223 6.464L1.41593 6L1.43202 6.464C2.94449 7.152 3.572 7.536 5.16492 8.672C7.24054 10.144 9.0909 10.944 11.6653 11.456L12.3411 10.816H12.1802C10.4746 10.816 8.94609 10.256 8.06114 9.312C8.80128 8.864 9.71799 8.65642 10.9895 8.65642C11.3274 8.65642 11.8101 8.688 12.2606 8.736L12.6468 8.368C12.0435 8.29485 11.4364 8.25745 10.8286 8.256C10.4205 8.25536 10.0126 8.27137 9.60578 8.304L9.89541 7.952C10.2383 7.93177 10.5817 7.9211 10.9252 7.92C11.7779 7.92 12.3411 7.952 12.9847 8.048L13.3548 7.696C12.679 7.58442 11.7458 7.52 10.893 7.52Z" fill="#3957CC"/>
</g>
<defs>
<clipPath id="clip0_46_279">
<rect width="94" height="16" fill="white"/>
</clipPath>
</defs>
</svg>
