<svg width="215" height="54" viewBox="0 0 215 54" fill="none" xmlns="http://www.w3.org/2000/svg">
<path d="M34.5 5.05005L28.5 8.55005L38 13.55L53.5 16.55L63.5 24.05L85 25.05L136 26.05C145 26.3834 163.1 27.05 163.5 27.05C163.9 27.05 173.667 24.7167 178.5 23.55L166 16.55L162 13.05L137 8.55005H124.5H116.5L108.5 2.55005L105.5 1.55005L102.5 1.05005L93.5 2.05005L102 5.05005H34.5Z" fill="white" stroke="white" stroke-width="0.5"/>
<path d="M214.248 29.35H54.8482C40.9482 29.35 27.4482 24.75 16.4482 16.15L59.1483 14.95L61.6483 14.85L67.8482 20.75H70.5482C70.7482 20.85 70.9483 20.95 71.1483 20.95C79.9483 21.95 168.048 21.55 168.048 21.55L167.848 21.45H169.448L167.748 19.95L159.048 12.05L185.248 11.25L214.248 29.35Z" fill="#3957CC"/>
<path d="M110.748 13.3501H76.0484C75.6484 13.3501 75.2484 13.3501 74.9484 13.3501H70.3484C69.9484 13.3501 69.5484 13.3501 69.1484 13.3501C66.6484 13.0501 64.4484 11.0501 63.0484 9.3501C61.5484 7.4501 59.2484 6.4501 56.8484 6.4501H34.3484C37.5484 6.4501 49.1484 6.55011 56.3484 8.55011C58.9484 9.25011 61.1484 10.9501 62.5484 13.2501L64.0484 15.6501C65.9484 18.5501 68.5484 20.1501 70.9484 21.0501H34.9484C26.3484 21.0501 17.9484 18.1501 11.2484 12.8501L0.148407 4.05011C-0.151593 3.85011 0.0483889 3.3501 0.348389 3.3501H102.348C104.148 4.4501 105.748 5.95012 106.848 7.75012L110.748 13.3501Z" fill="#3957CC"/>
<path d="M196.748 20.95H167.048L162.648 18.15C162.348 17.95 162.148 17.75 161.948 17.55C158.648 14.75 148.048 14.05 148.048 14.05C148.048 14.05 136.048 13.35 128.748 13.35C127.648 13.35 126.648 13.25 125.648 13.15C121.048 12.65 116.748 10.55 113.248 7.44998L112.648 6.94998L109.148 3.84998C108.948 3.64998 108.648 3.45 108.448 3.25H158.548C169.448 3.25 180.048 6.94999 188.748 13.65L197.048 20.15C197.248 20.45 197.148 20.95 196.748 20.95Z" fill="#3957CC"/>
<path d="M71.0484 20.9501L70.6484 21.8501C69.4484 21.7501 67.9484 21.4501 66.4484 20.9501C63.9484 20.0501 61.3484 18.4501 59.4484 15.5501L59.0484 14.9501L57.9484 13.1501C56.5484 10.8501 54.3484 9.1501 51.7484 8.4501C47.2484 7.2501 39.3484 6.6501 33.5484 6.4501C30.1484 6.3501 27.4484 6.3501 26.3484 6.3501H34.4484C37.6484 6.3501 49.2484 6.4501 56.4484 8.4501C59.0484 9.1501 61.2484 10.8501 62.6484 13.1501L64.1484 15.5501C65.9484 18.2501 68.2484 19.8501 70.4484 20.7501C70.6484 20.8501 70.8484 20.9501 71.0484 20.9501Z" fill="#5D90DB"/>
<path d="M170.748 21.95H75.2484C74.0484 21.85 72.5483 21.55 71.0483 21.05C79.8483 22.05 167.948 21.65 167.948 21.65L167.748 21.55L166.948 21.05L162.548 18.25C162.248 18.05 162.048 17.85 161.848 17.65C158.548 14.85 147.948 14.15 147.948 14.15C147.948 14.15 135.948 13.45 128.648 13.45C127.548 13.45 126.548 13.35 125.548 13.25C120.948 12.75 116.648 10.65 113.148 7.55002L112.548 7.05002L109.048 3.95001C108.848 3.75001 108.548 3.55001 108.348 3.35001C106.148 1.55001 103.348 0.650024 100.548 0.650024H102.848C105.648 0.650024 108.448 1.55001 110.648 3.35001C110.848 3.55001 111.148 3.75001 111.348 3.95001L114.848 7.05002L115.448 7.55002C118.948 10.65 123.248 12.65 127.848 13.25C128.848 13.35 129.848 13.45 130.948 13.45C138.248 13.45 150.248 14.15 150.248 14.15C150.248 14.15 160.848 14.85 164.148 17.65C164.348 17.85 164.648 18.05 164.848 18.25L167.648 20.05L169.248 21.05L170.748 21.95Z" fill="#5D90DB"/>
<path d="M73.7484 21.95C72.5484 21.95 74.0484 21.95 73.6484 22.05C73.5484 22.05 73.4484 22.05 73.3484 22.05H71.5484C71.2484 22.05 70.9484 22.05 70.6484 21.95L71.0484 21.05C72.5484 21.55 74.0484 21.85 75.2484 21.95H73.7484Z" fill="#5D90DB"/>
<path d="M110.748 13.35H105.848L102.048 7.65002C100.848 5.85002 98.5483 4.35003 95.9483 3.25003C93.3483 2.15003 90.4483 1.45001 88.2483 1.35001H96.1483C96.2483 1.35001 96.2483 1.35001 96.3483 1.35001C98.5483 1.55001 100.548 2.15003 102.348 3.25003C104.148 4.35003 105.748 5.85002 106.848 7.65002L110.748 13.35Z" fill="#5D90DB"/>
<path d="M75.2484 21.95H70.6484L71.0484 21.05C72.5484 21.55 73.9484 21.75 75.2484 21.95Z" fill="#5D90DB"/>
<path d="M60.824 49.35V38.15H62.008V48.326H68.28V49.35H60.824ZM81.9449 45.142C81.9449 45.238 81.9289 45.366 81.9289 45.494H74.8889C75.0169 47.254 76.3609 48.422 78.2009 48.422C79.2249 48.422 80.1369 48.054 80.7769 47.318L81.4169 48.054C80.6649 48.95 79.4969 49.43 78.1689 49.43C75.5449 49.43 73.7529 47.638 73.7529 45.142C73.7529 42.646 75.4969 40.87 77.8649 40.87C80.2329 40.87 81.9449 42.614 81.9449 45.142ZM77.8649 41.846C76.2329 41.846 75.0329 42.998 74.8889 44.646H80.8569C80.7129 42.998 79.5129 41.846 77.8649 41.846ZM94.7729 40.934H95.8929L92.1489 49.35H90.9809L87.2529 40.934H88.4369L91.5889 48.102L94.7729 40.934ZM102.789 39.094C102.325 39.094 101.957 38.726 101.957 38.278C101.957 37.846 102.325 37.478 102.789 37.478C103.253 37.478 103.621 37.83 103.621 38.262C103.621 38.726 103.269 39.094 102.789 39.094ZM102.213 49.35V40.934H103.349V49.35H102.213ZM111.774 48.406H117.166V49.35H110.318V48.598L115.614 41.894H110.414V40.934H117.07V41.686L111.774 48.406ZM132.729 49.35L131.385 46.358H125.145L123.801 49.35H122.569L127.689 38.15H128.857L133.977 49.35H132.729ZM125.577 45.398H130.953L128.265 39.382L125.577 45.398ZM140.886 39.094C140.422 39.094 140.054 38.726 140.054 38.278C140.054 37.846 140.422 37.478 140.886 37.478C141.35 37.478 141.718 37.83 141.718 38.262C141.718 38.726 141.366 39.094 140.886 39.094ZM140.31 49.35V40.934H141.446V49.35H140.31ZM150.415 42.582C150.943 41.462 152.015 40.87 153.567 40.87V41.974C153.471 41.974 153.375 41.958 153.295 41.958C151.535 41.958 150.463 43.078 150.463 45.062V49.35H149.327V40.934H150.415V42.582Z" fill="black"/>
</svg>
