<svg xmlns="http://www.w3.org/2000/svg" width="191" height="130" viewBox="0 0 191 130" fill="none">
  <path d="M162.606 118.233C145.539 121.073 134.811 113.083 110.823 112.854C110.537 112.854 110.254 112.851 109.96 112.851C102.973 112.837 94.8676 113.485 85.1819 115.24C84.8955 115.289 84.6022 115.341 84.3123 115.4C81.8555 115.854 79.2987 116.381 76.6314 116.984C71.5659 118.136 66.8663 118.965 62.5082 119.519C62.1735 119.561 61.8423 119.603 61.511 119.641C57.3565 120.137 53.5161 120.372 49.9654 120.39C49.6514 120.393 49.3374 120.393 49.0303 120.39C30.4974 120.289 20.0318 114.113 13.914 107.14C13.7207 106.918 13.524 106.692 13.3412 106.463C11.5469 104.313 10.1563 102.104 9.05211 99.9925C8.91064 99.7255 8.77262 99.4585 8.64495 99.1949C8.0618 98.0159 7.56837 96.8681 7.1405 95.7896C4.56983 89.2702 3.30693 83.5207 3.25862 78.3191C3.25517 77.9273 3.25862 77.5423 3.26897 77.1609C3.4415 70.1734 5.84309 64.1742 10.2081 58.5842C10.6808 57.9773 11.1742 57.3739 11.6918 56.7775C22.4058 44.4393 42.8021 33.8384 69.8545 18.5352C70.1409 18.3757 70.4273 18.2162 70.7171 18.0498C72.1974 17.2106 73.6984 16.3575 75.2166 15.4871C79.0916 13.2712 82.9011 11.3917 86.6346 9.82427C86.9072 9.7029 87.1763 9.58846 87.4489 9.4775C92.4591 7.42806 97.3347 5.93 102.069 4.94862C102.576 4.84113 103.083 4.74056 103.587 4.6504C113.38 2.82637 122.545 3.19395 130.974 5.30233C131.426 5.4133 131.871 5.53467 132.317 5.65258C140.75 7.96903 148.427 12.0436 155.256 17.4117C155.518 17.6128 155.773 17.8139 156.025 18.0255C160.794 21.8781 165.131 26.3654 169.006 31.3277C169.217 31.5948 169.427 31.8652 169.627 32.1357C170.576 33.3737 171.494 34.6429 172.378 35.9398C172.55 36.1826 172.719 36.4323 172.885 36.6819C173.93 38.2389 174.938 39.8341 175.901 41.457L175.942 41.5333C179.296 47.2031 182.125 53.2647 184.399 59.5517C185.766 63.3142 186.898 66.8478 187.812 70.156C187.922 70.5479 188.029 70.9328 188.129 71.3177C189.334 75.8258 190.127 79.9108 190.541 83.6178C190.593 84.0756 190.638 84.5194 190.679 84.9633C192.698 107.296 180.562 115.254 162.606 118.236V118.233Z" fill="#E6F5FC"/>
  <path d="M176.339 42.2301C167.033 47.567 159.4 50.1851 152.806 50.1851C148.931 50.1851 145.418 49.2801 142.13 47.4942C133.783 42.9584 127.286 33.0337 119.056 20.4631L118.09 18.9859C113.173 11.4817 107.486 7.25103 102.062 4.95191C102.569 4.84441 103.076 4.74385 103.58 4.65369C108.784 7.10885 114.149 11.3568 118.828 18.4969L119.794 19.9742C136.257 45.1292 145.322 58.9828 175.901 41.4568L175.942 41.5331L176.339 42.2301Z" fill="white"/>
  <path d="M172.885 36.6818C167.557 39.0433 162.989 40.6766 158.814 40.6766C157.05 40.6766 155.36 40.3853 153.714 39.7369C148.189 37.5591 143.521 31.4108 139.014 20.3869C136.475 14.1761 133.704 9.22768 130.971 5.30566C131.423 5.41663 131.868 5.538 132.313 5.65591C134.87 9.48083 137.441 14.2143 139.825 20.0505C144.238 30.8317 148.752 36.824 154.035 38.9046C159.276 40.9783 164.904 39.2549 172.378 35.9397C172.55 36.1824 172.719 36.4321 172.885 36.6818Z" fill="white"/>
  <path d="M169.624 32.1357C167.95 32.472 166.17 32.7078 164.438 32.7078C161.688 32.7078 159.062 32.1114 157.195 30.4122C154.493 27.9536 153.841 23.5911 155.252 17.4116C155.515 17.6128 155.77 17.8139 156.022 18.0254C154.804 23.6397 155.394 27.579 157.788 29.7568C160.452 32.1807 164.962 32.101 169.003 31.3277C169.213 31.5947 169.424 31.8652 169.624 32.1357Z" fill="white"/>
  <path d="M188.13 71.3176C184.665 76.821 179.296 83.0351 171.439 86.548C160.794 91.3057 148.045 90.1475 133.549 83.0976C117.304 75.2015 104.226 74.7958 95.7341 81.9393C87.3906 88.9511 84.4093 102.281 85.1857 115.24C84.8993 115.289 84.606 115.341 84.3162 115.4C83.5122 102.16 86.5763 88.483 95.1647 81.2631C103.95 73.8803 117.355 74.241 133.939 82.3035C148.186 89.232 160.687 90.3902 171.084 85.74C179.086 82.1682 184.455 75.7078 187.816 70.1594C187.926 70.5513 188.033 70.9362 188.133 71.3211L188.13 71.3176Z" fill="white"/>
  <path d="M190.679 84.9597C183.292 95.3282 175.517 100.675 166.166 102.007C155.138 103.578 142.32 99.2849 127.92 93.9481C121.727 91.6524 117.141 91.8744 114.277 94.6104C110.564 98.1579 110.064 105.392 110.823 112.854C110.536 112.854 110.254 112.851 109.96 112.851C109.205 105.18 109.757 97.7002 113.666 93.9689C116.792 90.9832 121.692 90.6988 128.224 93.1228C142.509 98.418 155.211 102.68 166.039 101.133C175.376 99.8016 183.122 94.3191 190.538 83.6177C190.59 84.0754 190.634 84.5193 190.676 84.9632L190.679 84.9597Z" fill="white"/>
  <path d="M82.3283 44.1272C73.4155 58.6293 55.6244 62.0623 38.4233 65.3879C24.7763 68.0234 11.6228 70.5618 3.25862 78.3191C3.25517 77.9273 3.25862 77.5423 3.26897 77.1609C5.08052 75.5622 7.15085 74.1439 9.47308 72.8851C17.5681 68.5089 27.6161 66.5704 38.2577 64.514C55.2758 61.2301 72.8703 57.8282 81.576 43.6625C90.4716 29.1951 89.5606 17.6163 86.6346 9.82773C86.9072 9.70636 87.1763 9.59192 87.4489 9.48096C90.4647 17.4706 91.4205 29.3442 82.3352 44.1306L82.3283 44.1272Z" fill="white"/>
  <path d="M69.2819 28.5498C66.7837 35.4472 61.142 40.4511 52.526 43.423C46.522 45.4967 40.9424 47.2479 36.0116 48.7945C25.6358 52.0472 17.1991 54.6966 10.2048 58.5805C10.6776 57.9736 11.171 57.3702 11.6886 56.7738C18.3551 53.4031 26.25 50.9272 35.7494 47.9449C40.6699 46.4017 46.2494 44.6505 52.2361 42.5838C60.5934 39.7021 66.0487 34.8784 68.4503 28.2481C69.5856 25.1202 69.9617 21.8016 69.8513 18.5315C70.1377 18.372 70.4241 18.2125 70.7139 18.046C70.8761 21.5692 70.5103 25.1618 69.2819 28.5463V28.5498Z" fill="white"/>
  <path d="M67.815 108.135C66.8523 110.08 65.8551 112.091 64.8786 114.144C63.9469 116.093 63.1636 117.882 62.5115 119.516C62.1768 119.557 61.8455 119.599 61.5143 119.637C62.2113 117.858 63.0601 115.906 64.0815 113.759C65.0649 111.699 66.0586 109.688 67.0283 107.739C72.0109 97.6758 76.3137 88.9857 73.2876 84.3042C71.2414 81.1451 65.8447 79.8031 56.7835 80.2019C38.6853 80.996 19.9005 92.2696 9.05536 99.9888C8.91389 99.7218 8.77586 99.4548 8.64819 99.1912C19.6072 91.4096 38.4956 80.1186 56.7456 79.3141C66.2726 78.8911 71.7659 80.3267 74.0225 83.8187C77.3247 88.9232 73.1289 97.4019 67.8184 108.135H67.815Z" fill="white"/>
  <path d="M49.9692 120.386C49.6552 120.39 49.3412 120.39 49.0341 120.386C52.1224 111.197 55.5212 100.367 53.8718 97.7592C52.985 96.3583 51.0941 95.4324 48.413 95.0856C40.287 94.0279 26.219 98.2759 13.9178 107.136C13.7245 106.914 13.5279 106.689 13.345 106.46C25.8533 97.4402 40.218 93.1263 48.5269 94.2013C51.4771 94.5828 53.5785 95.6474 54.6137 97.2772C56.477 100.221 53.3197 110.434 49.9727 120.386H49.9692Z" fill="white"/>
  <path d="M46.4082 25.0613C60.1276 18.3859 71.3868 10.4552 55.1623 7.19896C38.9377 3.94275 10.298 42.6254 46.4082 25.0613Z" fill="#E6F5FC"/>
  <path d="M78.9849 0.0971245C75.2479 -1.11659 66.9113 9.38721 72.5081 9.47737C78.1015 9.56753 88.9984 3.35333 78.9849 0.0971245Z" fill="#E6F5FC"/>
  <path d="M186.163 115.396C186.163 115.396 168.054 131.777 142.586 123.493C110.733 113.131 97.2072 118.167 97.0761 123.493C96.945 128.82 111.375 129 111.375 129" stroke="#70B2DD" stroke-width="1.28" stroke-miterlimit="10"/>
  <path d="M114.17 129H118.883" stroke="#70B2DD" stroke-width="1.28" stroke-miterlimit="10"/>
  <path d="M186.163 118.167C186.163 118.167 169.821 133.109 145.822 126.6" stroke="#70B2DD" stroke-width="1.28" stroke-miterlimit="10"/>
  <path d="M63.1707 56.7392C63.1707 56.7392 94.4811 51.9676 97.0759 29.6596C98.3457 18.7431 89.6261 22.783 87.1555 30.7276C85.4923 36.0784 82.9596 46.9012 103.718 32.7112C124.477 18.5212 132.869 29.6596 132.869 29.6596" stroke="#70B2DD" stroke-width="1.28" stroke-miterlimit="10"/>
  <path d="M115.864 29.7255C115.864 29.7255 129.777 24.51 135.077 36.7165" stroke="#70B2DD" stroke-width="1.28" stroke-miterlimit="10"/>
  <path d="M136.16 38.603L137.506 41.8211" stroke="#70B2DD" stroke-width="1.28" stroke-miterlimit="10"/>
  <path d="M1.25024 51.9918L28.979 77.4173" stroke="#70B2DD" stroke-width="1.28" stroke-miterlimit="10"/>
  <path d="M13.3374 69.0464L34.2513 87.4878" stroke="#70B2DD" stroke-width="1.28" stroke-miterlimit="10"/>
  <path d="M11.5191 67.4545L8.64478 65.0514" stroke="#70B2DD" stroke-width="1.28" stroke-miterlimit="10"/>
  <path d="M159.59 72.0043C159.59 72.0043 158.53 65.4121 172.885 63.1269C189.623 60.4637 189.623 48.0353 189.623 48.0353" stroke="#70B2DD" stroke-width="1.28" stroke-miterlimit="10"/>
  <path d="M188.129 57.8003C188.129 57.8003 185.403 64.1255 172.881 65.0132" stroke="#70B2DD" stroke-width="1.28" stroke-miterlimit="10"/>
  <path d="M186.973 50.1852C186.973 50.1852 188.736 45.3026 188.129 40.6766" stroke="#70B2DD" stroke-width="1.28" stroke-miterlimit="10"/>
  <path d="M156.853 40.7047L156.519 40.4833L154.931 42.9035L155.265 43.125L156.853 40.7047Z" fill="#70B2DD"/>
  <path d="M158.439 44.2877L158.46 43.886L155.579 43.7358L155.558 44.1375L158.439 44.2877Z" fill="#70B2DD"/>
  <path d="M156.152 47.4534L156.507 47.2679L155.177 44.6953L154.822 44.8807L156.152 47.4534Z" fill="#70B2DD"/>
  <path d="M152.276 47.1063L152.615 47.3202L154.149 44.8649L153.81 44.651L152.276 47.1063Z" fill="#70B2DD"/>
  <path d="M150.61 43.5593L150.598 43.9614L153.482 44.0469L153.494 43.6448L150.61 43.5593Z" fill="#70B2DD"/>
  <path d="M152.823 40.3317L152.472 40.525L153.858 43.0672L154.209 42.8738L152.823 40.3317Z" fill="#70B2DD"/>
  <path d="M17.4367 87.3403L17.1025 87.1189L15.5146 89.5391L15.8487 89.7606L17.4367 87.3403Z" fill="#70B2DD"/>
  <path d="M19.0142 90.9205L19.0349 90.5188L16.1541 90.3686L16.1334 90.7703L19.0142 90.9205Z" fill="#70B2DD"/>
  <path d="M16.74 94.0935L17.0952 93.9081L15.7655 91.3354L15.4103 91.5209L16.74 94.0935Z" fill="#70B2DD"/>
  <path d="M12.8614 93.7346L13.2004 93.9485L14.7342 91.4932L14.3952 91.2793L12.8614 93.7346Z" fill="#70B2DD"/>
  <path d="M11.2059 90.1867L11.1941 90.5887L14.0775 90.6742L14.0893 90.2722L11.2059 90.1867Z" fill="#70B2DD"/>
  <path d="M13.4062 86.9711L13.0552 87.1644L14.4418 89.7066L14.7928 89.5132L13.4062 86.9711Z" fill="#70B2DD"/>
  <path d="M115.757 39.989L115.479 39.9042L114.874 41.9047L115.151 41.9895L115.757 39.989Z" fill="#70B2DD"/>
  <path d="M117.569 42.1526L117.502 41.8694L115.479 42.3575L115.546 42.6408L117.569 42.1526Z" fill="#70B2DD"/>
  <path d="M116.641 44.8163L116.85 44.6143L115.407 43.1083L115.198 43.3104L116.641 44.8163Z" fill="#70B2DD"/>
  <path d="M113.891 45.3642L114.17 45.4427L114.732 43.4292L114.453 43.3506L113.891 45.3642Z" fill="#70B2DD"/>
  <path d="M112.027 43.2541L112.101 43.5358L114.113 43.0023L114.039 42.7207L112.027 43.2541Z" fill="#70B2DD"/>
  <path d="M112.891 40.5709L112.687 40.7776L114.164 42.2508L114.368 42.044L112.891 40.5709Z" fill="#70B2DD"/>
  <path d="M61.6849 34.3766L61.2153 34.0654L58.9873 37.4613L59.4568 37.7725L61.6849 34.3766Z" fill="#70B2DD"/>
  <path d="M63.8969 39.4029L63.926 38.8384L59.884 38.6276L59.8548 39.1921L63.8969 39.4029Z" fill="#70B2DD"/>
  <path d="M60.7021 43.8605L61.2012 43.6L59.3354 39.9903L58.8363 40.2508L60.7021 43.8605Z" fill="#70B2DD"/>
  <path d="M55.259 43.3571L55.7354 43.6576L57.8874 40.2125L57.411 39.912L55.259 43.3571Z" fill="#70B2DD"/>
  <path d="M52.9422 38.3873L52.9255 38.9523L56.9713 39.0729L56.988 38.5079L52.9422 38.3873Z" fill="#70B2DD"/>
  <path d="M56.0298 33.8566L55.5366 34.1283L57.4822 37.6952L57.9754 37.4235L56.0298 33.8566Z" fill="#70B2DD"/>
  <path d="M174.105 93.2937L173.636 92.9825L171.408 96.3784L171.877 96.6896L174.105 93.2937Z" fill="#70B2DD"/>
  <path d="M176.322 98.3264L176.352 97.762L172.309 97.5512L172.28 98.1157L176.322 98.3264Z" fill="#70B2DD"/>
  <path d="M173.12 102.784L173.619 102.524L171.754 98.9141L171.254 99.1747L173.12 102.784Z" fill="#70B2DD"/>
  <path d="M167.674 102.285L168.15 102.586L170.302 99.1405L169.826 98.84L167.674 102.285Z" fill="#70B2DD"/>
  <path d="M165.347 97.3021L165.331 97.8671L169.376 97.987L169.393 97.422L165.347 97.3021Z" fill="#70B2DD"/>
  <path d="M168.445 92.788L167.952 93.0597L169.897 96.6266L170.39 96.3549L168.445 92.788Z" fill="#70B2DD"/>
  <mask id="mask0_38_761" style="mask-type:luminance" maskUnits="userSpaceOnUse" x="3" y="3" width="188" height="118">
    <path d="M162.606 118.233C145.539 121.073 134.811 113.083 110.823 112.854C110.537 112.854 110.254 112.851 109.96 112.851C102.973 112.837 94.8676 113.485 85.1819 115.24C84.8955 115.289 84.6022 115.341 84.3123 115.4C81.8555 115.854 79.2987 116.381 76.6314 116.984C71.5659 118.136 66.8663 118.965 62.5082 119.519C62.1735 119.561 61.8423 119.603 61.511 119.641C57.3565 120.137 53.5161 120.372 49.9654 120.39C49.6514 120.393 49.3374 120.393 49.0303 120.39C30.4974 120.289 20.0318 114.113 13.914 107.14C13.7207 106.918 13.524 106.692 13.3412 106.463C11.5469 104.313 10.1563 102.104 9.05211 99.9925C8.91064 99.7255 8.77262 99.4585 8.64495 99.1949C8.0618 98.0159 7.56837 96.8681 7.1405 95.7896C4.56983 89.2702 3.30693 83.5207 3.25862 78.3191C3.25517 77.9273 3.25862 77.5423 3.26897 77.1609C3.4415 70.1734 5.84309 64.1742 10.2081 58.5842C10.6808 57.9773 11.1742 57.3739 11.6918 56.7775C22.4058 44.4393 42.8021 33.8384 69.8545 18.5352C70.1409 18.3757 70.4273 18.2162 70.7171 18.0498C72.1974 17.2106 73.6984 16.3575 75.2166 15.4871C79.0916 13.2712 82.9011 11.3917 86.6346 9.82427C86.9072 9.7029 87.1763 9.58846 87.4489 9.4775C92.4591 7.42806 97.3347 5.93 102.069 4.94862C102.576 4.84113 103.083 4.74056 103.587 4.6504C113.38 2.82637 122.545 3.19395 130.974 5.30233C131.426 5.4133 131.871 5.53467 132.317 5.65258C140.75 7.96903 148.427 12.0436 155.256 17.4117C155.518 17.6128 155.773 17.8139 156.025 18.0255C160.794 21.8781 165.131 26.3654 169.006 31.3277C169.217 31.5948 169.427 31.8652 169.627 32.1357C170.576 33.3737 171.494 34.6429 172.378 35.9398C172.55 36.1826 172.719 36.4323 172.885 36.6819C173.93 38.2389 174.938 39.8341 175.901 41.457L175.942 41.5333C179.296 47.2031 182.125 53.2647 184.399 59.5517C185.766 63.3142 186.898 66.8478 187.812 70.156C187.922 70.5479 188.029 70.9328 188.129 71.3177C189.334 75.8258 190.127 79.9108 190.541 83.6178C190.593 84.0756 190.638 84.5194 190.679 84.9633C192.698 107.296 180.562 115.254 162.606 118.236V118.233Z" fill="white"/>
  </mask>
  <g mask="url(#mask0_38_761)">
    <path d="M117.482 113.953L116.454 123.126H105.336L106.496 105.516L122.489 107.382L117.482 113.953Z" fill="#1B3151"/>
    <path d="M112.824 108.034L117.175 114.543L118.145 123.126H130.805L130.315 104.781L112.824 108.034Z" fill="#23406D"/>
    <path d="M130.805 105.295C117.927 113.139 106.123 106.328 106.123 106.328L106.327 104.778L106.641 102.399L108.169 90.7823L108.331 89.5339C108.331 89.5339 107.452 90.491 104.808 90.7337C104.519 90.7614 104.198 90.7788 103.863 90.7823C100.471 90.8447 89.9641 85.761 89.9641 85.761L89.2671 82.5533L93.4837 79.4185L102.69 82.6365C102.69 82.6365 105.781 75.2537 109.239 72.8714C111.137 71.5606 113.735 71.141 115.688 71.0265C117.293 70.9294 118.462 71.0404 118.462 71.0404C122.154 71.3109 124.725 71.8692 126.506 72.4968C130.101 73.7522 130.508 75.2849 130.508 75.2849L129.987 80.5212L128.973 90.7823L130.139 100.003L130.418 102.181L130.729 104.622L130.812 105.291L130.805 105.295Z" fill="url(#paint0_linear_38_761)"/>
    <path d="M108.169 90.7857L108.331 89.5374C108.331 89.5374 107.451 90.4945 104.808 90.7372L110.039 80.1987L108.172 90.7857H108.169Z" fill="#3150BC"/>
    <path d="M130.136 100.003C123.066 102.736 117.559 89.0761 117.559 89.0761C114.322 89.6517 112.369 85.7956 112.369 85.7956L115.571 83.5104L121.389 89.0761L121.61 83.7704L125.364 84.9945L126.851 76.717C126.851 76.717 128.304 78.2255 129.987 80.5212L128.973 90.7822L130.139 100.003H130.136Z" fill="#3150BC"/>
    <path d="M130.722 104.625C125.077 106.848 115.077 109.442 106.33 104.781L106.644 102.403C110.592 103.953 120.367 106.8 130.415 102.184L130.726 104.625H130.722Z" fill="#739CF9"/>
    <path d="M126.506 72.4968C124.287 74.1614 119.522 77.2962 116.413 76.1102C113.435 74.9728 114.712 72.4032 115.688 71.0265C117.293 70.9294 118.462 71.0404 118.462 71.0404C122.155 71.3109 124.725 71.8692 126.506 72.4968Z" fill="#4A6DDD"/>
    <path d="M106.716 79.4252H112.827C113.152 79.4252 113.417 79.1582 113.417 78.8322C113.417 78.5063 113.152 78.2393 112.827 78.2393H106.716C106.392 78.2393 106.126 78.5063 106.126 78.8322C106.126 79.1582 106.392 79.4252 106.716 79.4252Z" fill="#ABDAF7"/>
    <path d="M106.496 81.7971V86.7664C106.496 87.512 107.096 88.1154 107.838 88.1154H111.482C112.224 88.1154 112.824 87.512 112.824 86.7664V82.3104C112.075 81.2943 110.619 80.4204 108.776 81.5995C106.941 82.7854 106.492 81.7937 106.492 81.7937L106.496 81.7971Z" fill="url(#paint1_linear_38_761)"/>
    <path d="M112.824 87.2624H113.697C114.487 87.2624 115.133 86.6174 115.133 85.8198V81.2008C115.133 80.4066 114.487 79.7582 113.697 79.7582H112.848V80.6459H113.697C114.001 80.6459 114.249 80.8956 114.249 81.2008V85.8198C114.249 86.125 114.001 86.3746 113.697 86.3746H112.848V86.9884C112.848 87.0821 112.838 87.1757 112.821 87.2624H112.824Z" fill="#4E8FB7"/>
    <path d="M111.096 85.9515C111.258 85.9515 111.389 85.8198 111.389 85.6568V81.8839C111.389 81.7209 111.258 81.5891 111.096 81.5891C110.933 81.5891 110.802 81.7209 110.802 81.8839V85.6568C110.802 85.8198 110.933 85.9515 111.096 85.9515Z" fill="#F7B350"/>
    <path d="M109.77 85.9515C109.932 85.9515 110.063 85.8198 110.063 85.6568V81.8839C110.063 81.7209 109.932 81.5891 109.77 81.5891C109.608 81.5891 109.477 81.7209 109.477 81.8839V85.6568C109.477 85.8198 109.608 85.9515 109.77 85.9515Z" fill="#F7B350"/>
    <path d="M108.335 85.9515C108.497 85.9515 108.628 85.8198 108.628 85.6568V81.8839C108.628 81.7209 108.497 81.5891 108.335 81.5891C108.173 81.5891 108.042 81.7209 108.042 81.8839V85.6568C108.042 85.8198 108.173 85.9515 108.335 85.9515Z" fill="#F7B350"/>
    <path d="M111.482 88.3374H107.838C106.975 88.3374 106.275 87.6335 106.275 86.7665V79.2034H113.045V86.7665C113.045 87.6335 112.344 88.3374 111.482 88.3374ZM106.717 79.6472V86.7665C106.717 87.3872 107.22 87.8935 107.838 87.8935H111.482C112.099 87.8935 112.603 87.3872 112.603 86.7665V79.6472H106.717Z" fill="#70B2DD"/>
    <path d="M121.982 85.9515L119.366 83.8986C119.366 83.8986 119.035 81.8283 118.3 81.4954C117.565 81.1625 112.117 80.9787 112.375 81.9011C112.634 82.827 113.994 82.8513 113.994 82.8513C113.994 82.8513 112.817 83.7148 113.48 84.6753C113.48 84.6753 112.927 85.785 114.032 86.2289C115.136 86.6727 117.896 87.075 118.155 86.9294L118.414 86.7837L120.743 89.0759L121.985 85.9515H121.982Z" fill="#FEB19E"/>
    <path d="M127.513 88.1153C127.513 88.1153 124.973 77.1815 127.789 75.2846C130.605 73.3878 133.476 77.66 134.028 84.3181C134.58 90.9762 132.703 96.4691 128.01 96.7465C123.317 97.0239 118.459 88.1118 118.459 88.1118L121.606 83.7667L127.513 88.1118V88.1153Z" fill="url(#paint2_linear_38_761)"/>
    <path d="M113.839 64.3335L113.58 62.6517C113.58 62.6517 111.04 60.0578 111.962 57.8003C112.883 55.5428 114.574 56.4305 114.574 56.4305C114.574 56.4305 113.211 55.4318 113.542 54.2112C113.873 52.9905 116.568 50.6325 120.802 53.1119C120.802 53.1119 119.836 52.1201 120.315 51.3676C120.795 50.6117 127.972 53.0287 125.467 57.9113C125.467 57.9113 126.903 58.5389 126.24 61.757C125.577 64.975 122.879 68.526 122.879 68.526L113.835 64.33L113.839 64.3335Z" fill="url(#paint3_linear_38_761)"/>
    <path d="M123.959 71.5603C123.959 71.5603 120.646 76.3319 117.375 75.0766C115.826 74.4801 115.95 73.7866 116.412 72.8746C116.923 71.8585 117.862 70.5755 117.375 68.8624C116.544 65.9252 121.792 64.1601 122.831 63.848C122.944 63.8134 123.006 63.796 123.006 63.796C123.006 63.796 122.855 68.9005 123.959 71.5638V71.5603Z" fill="#FEB19E"/>
    <path d="M122.883 64.7532C122.959 71.7165 118.628 72.7845 116.413 72.8747C116.924 71.8586 117.862 70.5756 117.376 68.8625C116.544 65.9253 121.792 64.1602 122.831 63.8481C122.865 64.1221 122.879 64.4238 122.883 64.7532Z" fill="#FF856A"/>
    <path d="M113.414 59.0593C113.414 59.0593 113.128 65.1695 115.581 69.1643C116.04 69.9134 116.937 70.2706 117.786 70.0694C119.632 69.636 122.672 68.2454 123.003 63.7928C123.003 63.7928 124.511 63.3108 124.256 61.6844C123.997 60.0581 122.227 59.1703 122.158 63.0889C122.158 63.0889 120.243 62.9397 120.943 58.5392C120.943 58.5392 119.066 60.4256 117.962 60.4638C116.858 60.5019 117.079 59.0593 117.079 59.0593C117.079 59.0593 113.097 61.6844 113.414 59.0593Z" fill="#FEB19E"/>
    <path d="M37.4673 110.621L39.0856 123.864H50.0549L48.7299 102.042C48.7299 102.042 39.0856 100.859 37.4673 110.624V110.621Z" fill="#455060"/>
    <path d="M43.3025 103.817C43.3025 103.817 41.2218 108.773 37.3951 111.287L36.4393 123.864H24.9558L23.7654 103.099L43.3025 103.817Z" fill="#58677A"/>
    <path d="M45.1761 78.1075L44.8621 103.373C44.8621 103.373 39.7173 107.015 33.6788 104.487L32.999 67.7875C32.999 67.7875 35.1867 72.3372 38.4992 72.3372C41.0595 72.3372 41.4667 70.8356 40.8214 69.3861L41.6599 69.556L45.1761 78.1109V78.1075Z" fill="url(#paint4_linear_38_761)"/>
    <path d="M34.2654 64.3855C34.2654 64.3855 29.0275 57.5367 29.8556 54.284C30.6838 51.0313 31.6051 51.3884 31.6051 51.3884C31.6051 51.3884 30.1317 50.792 30.4077 50.199C30.6838 49.6025 32.1848 49.88 32.1848 49.88C32.1848 49.88 32.3021 47.4595 33.9998 47.1821C35.6974 46.9046 33.9998 48.4929 33.9998 48.4929C33.9998 48.4929 38.1439 46.5891 41.1079 50.2371C41.1079 50.2371 43.5958 46.5059 45.0174 48.1357C46.439 49.7655 44.624 51.5861 44.624 51.5861C44.624 51.5861 46.0836 50.6741 46.7565 51.5063C47.4293 52.3386 46.7427 54.6273 43.4923 54.8735L37.3882 62.8563L34.2689 64.389L34.2654 64.3855Z" fill="url(#paint5_linear_38_761)"/>
    <path d="M38.4958 72.3371C35.1833 72.3371 32.9956 67.7874 32.9956 67.7874C33.7789 65.6478 33.7996 62.7314 33.7409 61.164C33.7133 60.4809 33.6754 60.0543 33.6754 60.0543L41.0872 64.604C40.0727 65.568 40.0037 68.155 40.0037 68.155C40.1659 68.3318 40.3142 68.5191 40.4454 68.7133C41.5357 70.3292 41.4529 72.3336 38.4924 72.3336L38.4958 72.3371Z" fill="#FEB19E"/>
    <path d="M40.0314 67.7873C40.1936 67.9642 40.3178 68.519 40.4524 68.7167C36.3807 68.5884 34.4242 63.4735 33.7479 61.1674C33.7203 60.4843 33.6824 60.0577 33.6824 60.0577L41.0942 64.6074C40.0797 65.5714 40.0349 67.7908 40.0349 67.7908L40.0314 67.7873Z" fill="#FF856A"/>
    <path d="M43.8131 54.7384C43.8131 54.7384 43.851 60.6509 42.6088 64.3093C42.174 65.5889 40.8214 66.3206 39.524 65.96C37.257 65.3323 33.8513 63.7059 33.4096 59.6001C33.4096 59.6001 31.9086 57.7761 33.2129 56.3058C34.5172 54.8355 34.9486 57.7345 34.8312 58.6084C34.8312 58.6084 37.081 56.982 36.5289 53.7292C36.5289 53.7292 40.121 56.389 43.8131 54.7418V54.7384Z" fill="#FEB19E"/>
    <path d="M53.9268 102.76L54.3374 103.169C54.3374 103.169 55.3519 107.022 55.8729 107.074C56.3939 107.126 55.8453 104.903 56.3939 104.535C56.9391 104.168 58.1365 106.574 58.1365 107.386C58.1365 108.197 58.0571 109.321 58.5781 109.192C59.0992 109.061 59.2545 107.569 59.2545 107.569C59.2545 107.569 60.193 107.621 60.1654 106.626C60.1654 106.626 60.7382 106.13 60.6864 105.159C60.6347 104.188 60.0412 102.569 57.3083 100.894L56.3663 99.7705L53.9233 102.756L53.9268 102.76Z" fill="#FEB19E"/>
    <path d="M57.353 100.045L53.4125 103.374L51.6354 101.792L47.9226 98.491L44.1477 69.5562C44.1477 69.5562 46.746 70.8982 47.7742 73.929C48.8094 76.9667 51.6803 90.2828 51.6803 90.2828L55.89 97.5235L57.3565 100.048L57.353 100.045Z" fill="url(#paint6_linear_38_761)"/>
    <path d="M57.3531 100.044L53.4125 103.373L51.6355 101.792L55.8866 97.5199L57.3531 100.044Z" fill="#AEDDF4"/>
    <path d="M35.2213 92.9287C34.9107 100.423 34.4518 108.325 34.4518 108.325C28.5582 107.514 23.0373 104.553 22.5267 103.665C22.0091 102.777 23.41 101.744 23.41 101.744C23.41 101.744 22.4508 100.856 23.479 97.8945C23.7896 97.0172 24.0346 95.7549 24.2312 94.4094C24.7005 91.233 24.8799 87.6127 24.8799 87.6127C24.8799 87.6127 23.9517 85.102 23.1271 82.0227C22.2092 78.6104 21.4121 74.4942 22.1437 72.3338C23.5308 68.228 33.2752 66.7507 33.2752 66.7507C33.81 69.6636 35.2489 74.7057 35.4697 81.0309C35.4835 81.3742 35.4904 81.7175 35.4973 82.0712C35.5284 84.5402 35.4007 88.6669 35.2247 92.9287H35.2213Z" fill="url(#paint7_linear_38_761)"/>
    <g style="mix-blend-mode:multiply" opacity="0.2">
      <path d="M35.2212 92.9286C32.0294 94.2395 27.1883 95.7479 24.2311 94.4128C24.7004 91.2364 24.8798 87.6161 24.8798 87.6161C24.8798 87.6161 23.9516 85.1054 23.127 82.0261C24.5141 77.3793 26.4533 73.2111 26.4533 73.2111C26.4533 73.2111 28.8135 78.0798 30.2696 82.0711L35.4696 81.0308C35.4834 81.3741 35.4903 81.7174 35.4972 82.0711C35.5283 84.5402 35.4006 88.6668 35.2246 92.9286H35.2212Z" fill="#194B9B"/>
    </g>
    <path d="M40.0312 67.7875C40.0312 67.7875 42.1395 71.8378 43.2851 80.6597C44.4307 89.4817 43.0643 107.514 43.0643 107.514C43.0643 107.514 49.4547 104.629 49.4996 102.704C49.541 100.78 48.3437 101.078 48.3437 101.078C48.3437 101.078 49.541 100.19 49.0993 97.3049C48.6577 94.4197 47.9951 88.7118 47.3326 81.5405C46.6701 74.3693 47.7053 69.0185 40.0312 67.7875Z" fill="url(#paint8_linear_38_761)"/>
    <path d="M56.7628 76.0372H50.6518C50.3275 76.0372 50.0618 75.7701 50.0618 75.4442C50.0618 75.1182 50.3275 74.8512 50.6518 74.8512H56.7628C57.0871 74.8512 57.3528 75.1182 57.3528 75.4442C57.3528 75.7701 57.0871 76.0372 56.7628 76.0372Z" fill="#ABDAF7"/>
    <path d="M56.9802 77.7019V83.3786C56.9802 84.1241 56.3798 84.7275 55.6379 84.7275H51.9941C51.2523 84.7275 50.6519 84.1241 50.6519 83.3786V78.2151C52.3081 78.2914 52.8602 76.0374 54.7028 77.2164C56.5385 78.4024 56.9802 77.7019 56.9802 77.7019Z" fill="url(#paint9_linear_38_761)"/>
    <path d="M50.6241 83.6037V82.9899H49.7753C49.4716 82.9899 49.2232 82.7402 49.2232 82.435V77.816C49.2232 77.5108 49.4716 77.2612 49.7753 77.2612H50.6241V76.3734H49.7753C48.9851 76.3734 48.3398 77.0219 48.3398 77.816V82.435C48.3398 83.2326 48.9851 83.8776 49.7753 83.8776H50.6483C50.631 83.7874 50.6207 83.6973 50.6207 83.6037H50.6241Z" fill="#4E8FB7"/>
    <path d="M52.3809 82.567C52.2188 82.567 52.0876 82.4352 52.0876 82.2722V78.4993C52.0876 78.3364 52.2188 78.2046 52.3809 78.2046C52.5431 78.2046 52.6742 78.3364 52.6742 78.4993V82.2722C52.6742 82.4352 52.5431 82.567 52.3809 82.567Z" fill="#F7B350"/>
    <path d="M53.7059 82.567C53.5437 82.567 53.4126 82.4352 53.4126 82.2722V78.4993C53.4126 78.3364 53.5437 78.2046 53.7059 78.2046C53.8681 78.2046 53.9992 78.3364 53.9992 78.4993V82.2722C53.9992 82.4352 53.8681 82.567 53.7059 82.567Z" fill="#F7B350"/>
    <path d="M55.1414 82.567C54.9793 82.567 54.8481 82.4352 54.8481 82.2722V78.4993C54.8481 78.3364 54.9793 78.2046 55.1414 78.2046C55.3036 78.2046 55.4347 78.3364 55.4347 78.4993V82.2722C55.4347 82.4352 55.3036 82.567 55.1414 82.567Z" fill="#F7B350"/>
    <path d="M55.638 84.9529H51.9943C51.1316 84.9529 50.4312 84.2489 50.4312 83.382V75.8188H57.2012V83.382C57.2012 84.2489 56.5007 84.9529 55.638 84.9529ZM50.8728 76.2627V83.382C50.8728 84.0027 51.3766 84.509 51.9943 84.509H55.638C56.2557 84.509 56.7595 84.0027 56.7595 83.382V76.2627H50.8728Z" fill="#70B2DD"/>
    <path d="M41.0906 81.2908L44.1099 80.514C44.1099 80.514 44.4411 78.4438 45.1761 78.1109C45.911 77.778 51.3595 77.5942 51.1007 78.5166C50.8419 79.4425 49.4824 79.4668 49.4824 79.4668C49.4824 79.4668 50.659 80.3302 49.9965 81.2908C49.9965 81.2908 50.5486 82.4005 49.4444 82.8443C48.3402 83.2882 45.5798 83.6905 45.321 83.5448C45.0622 83.3992 44.8793 83.0663 44.8793 83.0663L42.3397 85.2475L41.0872 81.2908H41.0906Z" fill="#FEB19E"/>
    <path d="M43.6821 85.0846C43.6821 85.0846 42.9506 85.7816 41.7153 86.7144C39.086 88.6979 34.1862 91.7669 29.2967 91.4236C22.1196 90.9208 21.074 86.3191 21.1258 79.9939C21.1776 73.6688 22.3749 69.6913 24.5488 70.7836C27.6405 72.3371 29.2036 83.857 29.2036 83.857L39.6415 80.8955L41.8844 80.2575L43.6821 85.088V85.0846Z" fill="url(#paint10_linear_38_761)"/>
    <path d="M43.6818 85.0844C43.6818 85.0844 42.9502 85.7814 41.7149 86.7143L39.6377 80.8954L41.8806 80.2573L43.6783 85.0879L43.6818 85.0844Z" fill="#AEDDF4"/>
    <path d="M109.498 49.627C109.498 49.627 109.864 52.5988 107.359 53.6738L106.896 55.5395L105.026 54.8529L103.694 49.7726L106.869 47.8896C106.869 47.8896 108.825 49.2767 109.502 49.627H109.498Z" fill="#F49F8E"/>
    <path d="M103.894 53.4655C103.894 53.4655 101.937 50.0082 103.062 48.9817C104.184 47.9553 106.713 49.6337 106.637 50.5769C106.561 51.5167 104.429 50.3862 104.429 50.3862C104.429 50.3862 106.789 52.1929 106.261 54.062L105.909 55.1821L103.352 54.2146L103.894 53.4621V53.4655Z" fill="#FEB19E"/>
    <path d="M105.84 47.2514C105.243 46.9983 104.657 48.3888 104.878 49.4222C105.095 50.4556 106.04 49.1621 106.427 48.7009C106.427 48.7009 105.199 50.6117 106.065 50.9688C106.931 51.326 107.662 49.7239 107.662 49.7239C107.662 49.7239 107.231 51.1457 107.849 51.3225C108.466 51.4994 109.795 50.4105 109.574 49.5401C109.353 48.6697 108.915 49.013 108.528 48.2501C108.142 47.4838 108.073 47.0572 107.172 47.2029C106.275 47.3485 106.534 47.5462 105.844 47.2549L105.84 47.2514Z" fill="#FEB19E"/>
    <path d="M69.2505 105.378L67.2803 123.126H79.133L80.5304 114.252L82.1488 113.482L83.1805 123.126H93.4873L92.0864 101.598L69.2505 105.378Z" fill="#25314C"/>
    <path d="M90.499 82.5566C90.4783 82.56 90.468 82.567 90.468 82.567C90.468 82.567 90.4783 82.7889 90.499 83.1877C90.5508 84.1275 90.675 86.0555 90.9096 88.32C91.2409 91.538 93.2284 102 93.2284 102C93.2284 102 91.0201 102.08 83.6565 105.381C76.3 108.683 68.4948 105.381 68.4948 105.381L68.7777 97.4921L68.9365 92.9771C68.6742 93.1158 68.4292 93.2199 68.1842 93.3135C68.0566 93.3655 67.9323 93.4141 67.8047 93.4557C67.7943 93.4592 67.7874 93.4592 67.7771 93.4661C67.7184 93.4834 67.6563 93.5008 67.6011 93.5146C63.0946 94.6937 62.4873 87.5813 63.8779 81.1972C64.3852 78.8634 65.1615 76.6267 66.1173 74.931C66.2761 74.6432 66.4451 74.3658 66.6177 74.1126C70.8136 67.8984 80.3095 67.3436 80.3095 67.3436C86.3825 66.7888 91.793 69.5525 91.793 69.5525C97.3139 67.2673 103.19 53.6703 103.19 53.6703L107.472 55.692C107.224 72.2921 97.9729 79.0542 93.225 81.4365C91.7378 82.1821 90.6888 82.5011 90.499 82.5566Z" fill="url(#paint11_linear_38_761)"/>
    <path opacity="0.64" d="M93.2252 81.4364C91.738 82.182 90.689 82.501 90.4993 82.5565V74.9275C90.4993 74.9275 91.5344 79.0749 93.2252 81.4399V81.4364Z" fill="#B2283F"/>
    <path d="M90.4992 79.2101V82.0051C90.2784 81.9426 89.9817 82.0085 89.5986 82.2582C88.9085 82.7021 88.46 84.0233 88.0804 84.748C87.2799 86.253 86.4724 87.5257 85.1026 88.5556C84.6402 88.9059 83.8466 88.6458 83.5912 88.1568C83.1495 87.3176 82.9494 86.5443 82.9253 85.5942C82.8977 84.6648 83.1323 83.6245 82.9253 82.7194C82.1006 83.9054 81.3691 85.1572 80.7583 86.4646C80.2545 87.5396 79.9957 88.8851 79.2401 89.8213C78.374 90.8963 76.4831 91.2778 75.686 89.8699C75.1684 88.9648 75.3409 87.5292 75.2857 86.5409C75.2685 86.2253 75.3996 84.6371 75.1063 84.3978C74.3023 83.7424 73.0187 85.1122 72.5149 85.5283C70.448 87.2518 68.6848 89.2526 66.1762 90.3519C64.8857 90.9206 63.7643 89.0064 65.0617 88.4377C67.7566 87.2518 69.544 84.963 71.8559 83.2326C73.1809 82.2374 75.2029 80.9925 76.6142 82.5876C77.2353 83.2881 77.3353 84.2071 77.4182 85.0983C77.4837 85.7814 77.3492 86.6102 77.5424 87.2552C77.8046 88.1256 77.6217 88.0528 78.1359 87.0021C79.3608 84.4949 80.5306 82.1715 82.2489 79.9487C82.632 79.4563 83.4118 79.588 83.8121 79.9487C85.6132 81.5785 84.8541 83.5933 85.075 85.5283C86.6208 83.465 87.1764 80.4238 89.7712 79.4043C90.0369 79.3037 90.2819 79.2343 90.513 79.2031L90.4992 79.2101Z" fill="#FF8C83"/>
    <path d="M82.304 87.7476C81.8037 87.4806 81.0687 87.5915 80.7927 88.1464C80.7754 88.1845 80.7547 88.2192 80.7375 88.2573C80.4787 88.7775 80.5822 89.4849 81.1343 89.7762C81.6346 90.0432 82.3696 89.9323 82.6456 89.3774C82.6629 89.3393 82.6836 89.3046 82.7008 89.2665C82.9596 88.7463 82.8561 88.0423 82.304 87.7476Z" fill="#FF8C83"/>
    <path d="M78.0217 83.5691C78.5221 83.8361 79.257 83.7251 79.5331 83.1703C79.5503 83.1321 79.571 83.0974 79.5883 83.0593C79.8471 82.5391 79.7436 81.8352 79.1915 81.5404C78.6912 81.2734 77.9562 81.3844 77.6801 81.9392C77.6629 81.9774 77.6422 82.012 77.6249 82.0502C77.3661 82.5703 77.4697 83.2778 78.0217 83.5691Z" fill="#FF8C83"/>
    <path d="M85.8755 81.471C86.3758 81.738 87.1108 81.6271 87.3869 81.0722C87.4041 81.0341 87.4248 80.9994 87.4421 80.9613C87.7009 80.4411 87.5973 79.7337 87.0452 79.4424C86.5449 79.1754 85.8099 79.2864 85.5339 79.8412C85.5166 79.8793 85.4959 79.914 85.4787 79.9522C85.2199 80.4723 85.3234 81.1797 85.8755 81.471Z" fill="#FF8C83"/>
    <path opacity="0.64" d="M85.9753 84.0025C85.9753 84.0025 83.8429 88.2817 79.7229 87.3939C79.7229 87.3939 73.5223 96.039 68.7777 97.492L68.9365 92.977C68.6742 93.1157 68.4292 93.2197 68.1842 93.3134C68.0566 93.3654 67.9323 93.4139 67.8047 93.4555C67.7943 93.459 67.7874 93.459 67.7771 93.4659C67.7184 93.4833 67.6563 93.5006 67.6011 93.5145C63.0946 94.6935 62.4873 87.5812 63.8779 81.1971L69.247 74.6361C69.247 74.6361 71.1517 76.5885 69.8509 81.8351L72.1351 80.8018L73.4394 82.6397L78.3185 82.5564L79.1536 83.4858L85.9719 84.0059L85.9753 84.0025Z" fill="#B2283F"/>
    <path d="M86.4205 76.11H80.3095C79.9852 76.11 79.7195 75.843 79.7195 75.5171C79.7195 75.1911 79.9852 74.9241 80.3095 74.9241H86.4205C86.7448 74.9241 87.0105 75.1911 87.0105 75.5171C87.0105 75.843 86.7448 76.11 86.4205 76.11Z" fill="#ABDAF7"/>
    <path d="M86.6381 78.4819V83.4512C86.6381 84.1968 86.0377 84.8002 85.2959 84.8002H81.6521C80.9102 84.8002 80.3098 84.1968 80.3098 83.4512V78.9952C81.0586 77.9791 82.5147 77.1052 84.3573 78.2843C86.193 79.4702 86.6416 78.4785 86.6416 78.4785L86.6381 78.4819Z" fill="url(#paint12_linear_38_761)"/>
    <path d="M80.2821 83.6765V83.0627H79.4332C79.1296 83.0627 78.8811 82.8131 78.8811 82.5079V77.8889C78.8811 77.5837 79.1296 77.334 79.4332 77.334H80.2821V76.4463H79.4332C78.6431 76.4463 77.9978 77.0948 77.9978 77.8889V82.5079C77.9978 83.3055 78.6431 83.9505 79.4332 83.9505H80.3062C80.289 83.8603 80.2786 83.7702 80.2786 83.6765H80.2821Z" fill="#4E8FB7"/>
    <path d="M82.0382 82.6396C81.876 82.6396 81.7449 82.5079 81.7449 82.3449V78.572C81.7449 78.409 81.876 78.2772 82.0382 78.2772C82.2003 78.2772 82.3315 78.409 82.3315 78.572V82.3449C82.3315 82.5079 82.2003 82.6396 82.0382 82.6396Z" fill="#F7B350"/>
    <path d="M83.3634 82.6396C83.2012 82.6396 83.0701 82.5079 83.0701 82.3449V78.572C83.0701 78.409 83.2012 78.2772 83.3634 78.2772C83.5255 78.2772 83.6567 78.409 83.6567 78.572V82.3449C83.6567 82.5079 83.5255 82.6396 83.3634 82.6396Z" fill="#F7B350"/>
    <path d="M84.7987 82.6396C84.6365 82.6396 84.5054 82.5079 84.5054 82.3449V78.572C84.5054 78.409 84.6365 78.2772 84.7987 78.2772C84.9608 78.2772 85.092 78.409 85.092 78.572V82.3449C85.092 82.5079 84.9608 82.6396 84.7987 82.6396Z" fill="#F7B350"/>
    <path d="M85.2958 85.0254H81.652C80.7893 85.0254 80.0889 84.3214 80.0889 83.4545V75.8914H86.8589V83.4545C86.8589 84.3214 86.1584 85.0254 85.2958 85.0254ZM80.5305 76.3352V83.4545C80.5305 84.0752 81.0343 84.5815 81.652 84.5815H85.2958C85.9134 84.5815 86.4172 84.0752 86.4172 83.4545V76.3352H80.5305Z" fill="#70B2DD"/>
    <path d="M71.1519 82.6398L73.7674 80.5869C73.7674 80.5869 74.0987 78.5167 74.8336 78.1838C75.5686 77.8509 81.017 77.6671 80.7583 78.5895C80.4995 79.5154 79.1399 79.5396 79.1399 79.5396C79.1399 79.5396 80.3166 80.4031 79.6541 81.3637C79.6541 81.3637 80.2062 82.4734 79.102 82.9172C77.9978 83.3611 75.2374 83.7634 74.9786 83.6177L74.7198 83.4721L72.3906 85.7642L71.1484 82.6398H71.1519Z" fill="#FEB19E"/>
    <path d="M75.282 85.2439C75.282 85.2439 71.6072 92.2557 67.8047 93.4555C67.7943 93.459 67.7874 93.459 67.7771 93.4659C67.7184 93.4833 67.6563 93.5006 67.6011 93.5145C61.4487 95.1305 62.5563 81.256 66.1173 74.9309C66.7936 74.539 67.4838 73.7969 68.5293 73.9287C70.1027 74.1229 69.875 77.9131 69.2815 80.5867C68.8985 82.3276 68.4327 83.7875 68.3844 83.9366V83.9505L72.1351 80.8017L75.2786 85.2439H75.282Z" fill="url(#paint13_linear_38_761)"/>
    <path opacity="0.64" d="M69.6884 77.9098C69.6539 79.0507 68.7567 83.1287 68.3875 83.9367V83.9506L65.5649 86.4612C67.7319 83.8292 69.1708 80.9961 69.6884 77.9098Z" fill="#B2283F"/>
    <path d="M76.5999 59.014C76.5999 59.014 74.1949 55.4526 74.8022 53.75C75.4095 52.0473 77.0174 52.453 77.0174 52.453C77.0174 52.453 77.1382 50.1054 79.5156 48.8084C81.8931 47.5115 85.6818 48.4443 87.0517 51.3607C87.0517 51.3607 89.1461 50.9515 89.7914 53.3234C90.4367 55.6954 89.0668 56.9888 89.0668 56.9888C89.0668 56.9888 90.2745 54.5996 88.3801 53.7881C88.3801 53.7881 89.7914 57.19 86.7687 58.4037C83.746 59.6174 78.4667 61.4414 78.4667 61.4414L76.5999 59.0105V59.014Z" fill="url(#paint14_linear_38_761)"/>
    <path d="M83.9498 71.3523C81.5068 72.3649 77.3627 68.9734 77.3627 68.9734C77.694 66.3449 77.6319 64.1394 77.5007 62.6205C77.3765 61.2126 77.1902 60.3977 77.1902 60.3977C77.1902 60.3977 84.464 64.1984 83.9498 66.2305C83.7014 67.1979 84.2949 68.155 84.6883 69.015C85.1265 69.9583 85.3335 70.7767 83.9498 71.3523Z" fill="#FEB19E"/>
    <path d="M84.6883 69.015C82.6973 68.6613 78.912 67.3713 77.5007 62.6205C77.3765 61.2126 77.1902 60.3977 77.1902 60.3977C77.1902 60.3977 84.464 64.1984 83.9498 66.2304C83.7014 67.1979 84.2949 68.155 84.6883 69.015Z" fill="#FF856A"/>
    <path d="M87.7319 56.2468C87.7319 56.2468 88.0666 60.2902 86.6346 64.4445C86.1239 65.9218 84.5815 66.754 83.0633 66.4281C80.9274 65.9669 78.1221 64.7185 77.3629 61.3444C77.3629 61.3444 75.5514 60.252 76.3347 58.4904C77.1214 56.7288 78.1462 60.1307 78.1462 60.1307C78.1462 60.1307 80.3132 60.7895 79.6472 56.8398C79.6472 56.8398 84.5056 58.0604 84.9162 52.7201C84.9162 52.7201 85.9893 56.6213 87.7319 56.2503V56.2468Z" fill="#FEB19E"/>
    <path d="M136.181 105.516L135.446 123.126H147.296L149.062 113.953L146.633 105.516H136.181Z" fill="#382649"/>
    <path d="M140.826 108.589C140.826 108.589 144.204 112.917 147.002 114.765L148.917 123.126H162.316L158.413 104.785L140.829 108.592L140.826 108.589Z" fill="#46295B"/>
    <path d="M176.121 74.0989C176.121 74.0989 178.361 71.6333 179.21 71.5986C180.055 71.5605 178.067 74.5566 178.067 74.5566L176.121 74.0989Z" fill="#F49F8E"/>
    <path d="M174.251 75.4233L175.49 74.6673C175.49 74.6673 176.301 73.5576 177.588 73.7796C178.875 74.0015 182.595 74.4072 182.595 74.4072C182.595 74.4072 184.323 72.2989 184.765 72.6699C185.207 73.0409 183.623 75.888 182.998 75.8151C182.374 75.7423 177.295 76.963 177.295 76.963L176.008 77.9755L174.251 75.4233Z" fill="#FEB19E"/>
    <path d="M176.594 78.8323C176.594 78.8323 172.398 87.5398 166.988 90.7856C164.179 92.4709 161.546 91.2607 159.666 89.7071C157.999 88.3305 156.922 86.6902 156.836 86.5515C156.833 86.548 156.833 86.5411 156.833 86.5411C156.829 86.6694 156.822 86.8046 156.819 86.933V87.0266C156.47 97.135 159.007 105.517 159.007 105.517C147.592 113.583 135.301 106.481 135.301 106.481L135.808 100.076L136.109 96.2716C135.398 96.7016 134.739 97.0518 134.125 97.3188C133.773 97.4749 133.434 97.6032 133.114 97.7038C128.431 99.2365 127.092 95.5121 128.749 89.6066C130.005 85.1228 133.145 80.1154 136.433 76.717C138.289 74.7959 140.201 73.388 141.847 72.8747C146.415 71.4495 152.985 71.7963 156.94 73.3359C160.894 74.8756 164.89 82.6988 164.89 82.6988L173.847 74.8375L176.594 78.8323Z" fill="url(#paint15_linear_38_761)"/>
    <path opacity="0.62" d="M141.85 82.6987C141.85 82.6987 140.187 95.6057 140.577 102.93C140.577 102.93 148.627 104.185 153.299 102.635C153.299 102.635 151.864 89.4712 152.012 83.2917C152.012 83.2917 146.564 83.4061 141.854 82.6987H141.85Z" fill="#F99A95"/>
    <path opacity="0.67" d="M149.711 92.1483C149.711 92.1483 146.267 95.8553 142.199 93.5319L135.809 100.076L136.109 96.2714C135.398 96.7014 134.739 97.0517 134.125 97.3187C133.773 97.4747 133.435 97.603 133.114 97.7036L132.703 94.808L140.577 89.0724L149.711 92.1448V92.1483Z" fill="#AF2567"/>
    <path opacity="0.67" d="M159.666 89.7071C157.999 88.3304 156.923 86.6901 156.836 86.5514L157.237 78.5895L159.666 89.7071Z" fill="#AF2567"/>
    <path d="M143.017 64.3129C143.017 64.3129 140.736 61.2994 140.736 58.8027C140.736 56.3059 143.017 56.1117 143.017 56.1117C143.017 56.1117 141.537 54.9465 142.337 53.5594C143.138 52.1723 148.327 52.3943 149.901 55.224C149.901 55.224 148.852 53.0601 147.499 52.5052C147.499 52.5052 150.591 52.6717 151.005 55.2517C151.005 55.2517 153.003 53.5872 154.29 57.8768C155.577 62.1664 152.154 67.7911 152.154 67.7911L143.017 64.3129Z" fill="url(#paint16_linear_38_761)"/>
    <path d="M153.296 72.8749C153.296 72.8749 148.769 76.8351 147.554 77.2789C146.34 77.7228 145.066 73.4471 145.066 73.4471C145.066 73.4471 145.712 73.0795 146.136 72.1606C146.478 71.4427 146.678 70.3851 146.34 68.8974C145.567 65.5164 152.568 64.861 152.568 64.861C152.568 64.8748 152.564 64.8887 152.564 64.9026C152.52 65.3569 152.15 69.5043 153.296 72.8749Z" fill="#FEB19E"/>
    <path d="M152.568 64.8643C152.568 64.8643 152.565 64.892 152.565 64.9059C151.84 71.1374 148.027 72.0876 146.14 72.1639C146.481 71.446 146.681 70.3884 146.343 68.9007C145.57 65.5197 152.572 64.8643 152.572 64.8643H152.568Z" fill="#FF856A"/>
    <path d="M142.585 60.3526C142.585 60.3526 142.585 65.4467 144.68 68.9942C145.308 70.0553 146.588 70.5408 147.751 70.1386C149.479 69.5386 151.881 68.1273 152.564 64.8676C152.564 64.8676 154.29 64.4064 154.096 62.0761C153.903 59.7457 151.584 61.7258 151.943 63.7683C151.943 63.7683 150.618 63.5741 150.563 60.0232C150.563 60.0232 149.072 61.4935 147.72 61.4657C146.367 61.438 147.25 60.0232 147.25 60.0232C147.25 60.0232 145.484 61.9651 143.91 62.2148C143.91 62.2148 145.76 61.1328 145.925 59.4128C145.925 59.4128 145.235 60.9109 142.585 60.3561V60.3526Z" fill="#FEB19E"/>
    <path d="M151.036 83.8813H144.925C144.601 83.8813 144.335 83.6143 144.335 83.2883C144.335 82.9623 144.601 82.6953 144.925 82.6953H151.036C151.36 82.6953 151.626 82.9623 151.626 83.2883C151.626 83.6143 151.36 83.8813 151.036 83.8813Z" fill="#ABDAF7"/>
    <path d="M151.253 88.0598V91.2259C151.253 91.9714 150.653 92.5748 149.911 92.5748H146.267C145.525 92.5748 144.925 91.9714 144.925 91.2259V88.573C145.674 87.557 147.13 86.6831 148.972 87.8622C150.808 89.0481 151.257 88.0564 151.257 88.0564L151.253 88.0598Z" fill="url(#paint17_linear_38_761)"/>
    <path d="M144.898 91.4479V90.8341H144.049C143.745 90.8341 143.497 90.5844 143.497 90.2793V85.6602C143.497 85.3551 143.745 85.1054 144.049 85.1054H144.898V84.2177H144.049C143.259 84.2177 142.613 84.8661 142.613 85.6602V90.2793C142.613 91.0768 143.259 91.7218 144.049 91.7218H144.922C144.904 91.6317 144.894 91.5415 144.894 91.4479H144.898Z" fill="#4E8FB7"/>
    <path d="M146.654 90.4112C146.492 90.4112 146.361 90.2795 146.361 90.1165V86.3436C146.361 86.1806 146.492 86.0488 146.654 86.0488C146.816 86.0488 146.947 86.1806 146.947 86.3436V90.1165C146.947 90.2795 146.816 90.4112 146.654 90.4112Z" fill="#F7B350"/>
    <path d="M147.979 90.4112C147.817 90.4112 147.686 90.2795 147.686 90.1165V86.3436C147.686 86.1806 147.817 86.0488 147.979 86.0488C148.141 86.0488 148.272 86.1806 148.272 86.3436V90.1165C148.272 90.2795 148.141 90.4112 147.979 90.4112Z" fill="#F7B350"/>
    <path d="M149.414 90.4112C149.252 90.4112 149.121 90.2795 149.121 90.1165V86.3436C149.121 86.1806 149.252 86.0488 149.414 86.0488C149.577 86.0488 149.708 86.1806 149.708 86.3436V90.1165C149.708 90.2795 149.577 90.4112 149.414 90.4112Z" fill="#F7B350"/>
    <path d="M149.911 92.7968H146.267C145.405 92.7968 144.704 92.0928 144.704 91.2259V83.6627H151.474V91.2259C151.474 92.0928 150.774 92.7968 149.911 92.7968ZM145.146 84.1066V91.2259C145.146 91.8466 145.65 92.3529 146.267 92.3529H149.911C150.529 92.3529 151.033 91.8466 151.033 91.2259V84.1066H145.146Z" fill="#70B2DD"/>
    <path d="M135.767 90.411L138.382 88.3581C138.382 88.3581 138.714 86.2879 139.449 85.955C140.184 85.6221 145.632 85.4383 145.373 86.3607C145.114 87.2866 143.755 87.3109 143.755 87.3109C143.755 87.3109 144.932 88.1744 144.269 89.1349C144.269 89.1349 144.821 90.2446 143.717 90.6885C142.613 91.1323 139.852 91.5346 139.594 91.389L139.335 91.2433L137.006 93.5355L135.763 90.411H135.767Z" fill="#FEB19E"/>
    <path d="M139.418 93.9758L134.121 97.3187C128.628 99.7392 126.975 95.9178 128.745 89.61C130.001 85.1262 133.141 80.1187 136.43 76.7204C137.696 76.6683 137.755 80.6389 137.568 84.0962C137.423 86.7421 137.137 89.0759 137.137 89.0759L139.414 93.9758H139.418Z" fill="url(#paint18_linear_38_761)"/>
    <path opacity="0.67" d="M137.572 84.0996C137.427 86.742 137.141 89.0758 137.141 89.0758L131.917 91.0871C132.068 90.9553 135.861 87.55 137.575 84.0996H137.572Z" fill="#AF2567"/>
  </g>
  <defs>
    <linearGradient id="paint0_linear_38_761" x1="108.994" y1="108.145" x2="111.67" y2="71.9717" gradientUnits="userSpaceOnUse">
      <stop stop-color="#3855E1"/>
      <stop offset="1" stop-color="#5C7EF7"/>
    </linearGradient>
    <linearGradient id="paint1_linear_38_761" x1="109.66" y1="88.1154" x2="109.66" y2="81.0342" gradientUnits="userSpaceOnUse">
      <stop stop-color="#F7AC49"/>
      <stop offset="1" stop-color="#F7EA89"/>
    </linearGradient>
    <linearGradient id="paint2_linear_38_761" x1="124.711" y1="109.307" x2="127.388" y2="73.1331" gradientUnits="userSpaceOnUse">
      <stop stop-color="#3855E1"/>
      <stop offset="1" stop-color="#5C7EF7"/>
    </linearGradient>
    <linearGradient id="paint3_linear_38_761" x1="120.505" y1="67.3435" x2="117.533" y2="49.2952" gradientUnits="userSpaceOnUse">
      <stop stop-color="#4A0B14"/>
      <stop offset="1" stop-color="#7A312A"/>
    </linearGradient>
    <linearGradient id="paint4_linear_38_761" x1="39.0858" y1="106.037" x2="39.0858" y2="64.4897" gradientUnits="userSpaceOnUse">
      <stop stop-color="#F79239"/>
      <stop offset="1" stop-color="#F7C249"/>
    </linearGradient>
    <linearGradient id="paint5_linear_38_761" x1="32.1054" y1="62.2841" x2="40.3354" y2="48.9281" gradientUnits="userSpaceOnUse">
      <stop stop-color="#4A0B14"/>
      <stop offset="1" stop-color="#7A312A"/>
    </linearGradient>
    <linearGradient id="paint6_linear_38_761" x1="51.8183" y1="106.141" x2="49.811" y2="66.4154" gradientUnits="userSpaceOnUse">
      <stop stop-color="#359DE6"/>
      <stop offset="1" stop-color="#49B8EF"/>
    </linearGradient>
    <linearGradient id="paint7_linear_38_761" x1="29.6969" y1="107.257" x2="27.6896" y2="67.532" gradientUnits="userSpaceOnUse">
      <stop stop-color="#359DE6"/>
      <stop offset="1" stop-color="#49B8EF"/>
    </linearGradient>
    <linearGradient id="paint8_linear_38_761" x1="45.8282" y1="106.442" x2="43.8209" y2="66.7169" gradientUnits="userSpaceOnUse">
      <stop stop-color="#359DE6"/>
      <stop offset="1" stop-color="#49B8EF"/>
    </linearGradient>
    <linearGradient id="paint9_linear_38_761" x1="53.816" y1="84.731" x2="53.816" y2="76.8765" gradientUnits="userSpaceOnUse">
      <stop stop-color="#F7AC49"/>
      <stop offset="1" stop-color="#F7EA89"/>
    </linearGradient>
    <linearGradient id="paint10_linear_38_761" x1="33.5961" y1="107.06" x2="31.5888" y2="67.3342" gradientUnits="userSpaceOnUse">
      <stop stop-color="#359DE6"/>
      <stop offset="1" stop-color="#49B8EF"/>
    </linearGradient>
    <linearGradient id="paint11_linear_38_761" x1="85.7234" y1="108.204" x2="85.2774" y2="64.9994" gradientUnits="userSpaceOnUse">
      <stop stop-color="#DB374C"/>
      <stop offset="1" stop-color="#EC4351"/>
    </linearGradient>
    <linearGradient id="paint12_linear_38_761" x1="83.474" y1="84.8036" x2="83.474" y2="77.7225" gradientUnits="userSpaceOnUse">
      <stop stop-color="#F7AC49"/>
      <stop offset="1" stop-color="#F7EA89"/>
    </linearGradient>
    <linearGradient id="paint13_linear_38_761" x1="69.4782" y1="108.37" x2="69.0321" y2="65.1657" gradientUnits="userSpaceOnUse">
      <stop stop-color="#DB374C"/>
      <stop offset="1" stop-color="#EC4351"/>
    </linearGradient>
    <linearGradient id="paint14_linear_38_761" x1="80.3541" y1="61.0669" x2="84.0311" y2="49.2036" gradientUnits="userSpaceOnUse">
      <stop stop-color="#1F3A65"/>
      <stop offset="1" stop-color="#294A7A"/>
    </linearGradient>
    <linearGradient id="paint15_linear_38_761" x1="150.518" y1="109.91" x2="154.087" y2="63.6394" gradientUnits="userSpaceOnUse">
      <stop stop-color="#CA2A73"/>
      <stop offset="1" stop-color="#DD4368"/>
    </linearGradient>
    <linearGradient id="paint16_linear_38_761" x1="148.883" y1="65.433" x2="146.542" y2="53.6748" gradientUnits="userSpaceOnUse">
      <stop stop-color="#1F3A65"/>
      <stop offset="1" stop-color="#294A7A"/>
    </linearGradient>
    <linearGradient id="paint17_linear_38_761" x1="147.878" y1="92.6095" x2="148.325" y2="86.9505" gradientUnits="userSpaceOnUse">
      <stop stop-color="#F7AC49"/>
      <stop offset="1" stop-color="#F7EA89"/>
    </linearGradient>
    <linearGradient id="paint18_linear_38_761" x1="132.613" y1="108.53" x2="136.182" y2="62.2591" gradientUnits="userSpaceOnUse">
      <stop stop-color="#CA2A73"/>
      <stop offset="1" stop-color="#DD4368"/>
    </linearGradient>
  </defs>
</svg>