<svg width="215" height="53" viewBox="0 0 215 53" fill="none" xmlns="http://www.w3.org/2000/svg">
<path d="M34.5 4.3999L28.5 7.8999L38 12.8999L53.5 15.8999L63.5 23.3999L85 24.3999L136 25.3999C145 25.7332 163.1 26.3999 163.5 26.3999C163.9 26.3999 173.667 24.0666 178.5 22.8999L166 15.8999L162 12.3999L137 7.8999H124.5H116.5L108.5 1.8999L105.5 0.899902L102.5 0.399902L93.5 1.3999L102 4.3999H34.5Z" fill="white" stroke="white" stroke-width="0.5"/>
<path d="M214.248 28.7001H54.8482C40.9482 28.7001 27.4482 24.1001 16.4482 15.5001L59.1483 14.3001L61.6483 14.2001L67.8482 20.1001H70.5482C70.7482 20.2001 70.9483 20.3001 71.1483 20.3001C79.9483 21.3001 168.048 20.9001 168.048 20.9001L167.848 20.8001H169.448L167.748 19.3001L159.048 11.4001L185.248 10.6001L214.248 28.7001Z" fill="#3957CC"/>
<path d="M110.748 12.7002H76.0484C75.6484 12.7002 75.2484 12.7002 74.9484 12.7002H70.3484C69.9484 12.7002 69.5484 12.7002 69.1484 12.7002C66.6484 12.4002 64.4484 10.4002 63.0484 8.7002C61.5484 6.8002 59.2484 5.8002 56.8484 5.8002H34.3484C37.5484 5.8002 49.1484 5.90021 56.3484 7.90021C58.9484 8.60021 61.1484 10.3002 62.5484 12.6002L64.0484 15.0002C65.9484 17.9002 68.5484 19.5002 70.9484 20.4002H34.9484C26.3484 20.4002 17.9484 17.5002 11.2484 12.2002L0.148407 3.40021C-0.151593 3.20021 0.0483889 2.7002 0.348389 2.7002H102.348C104.148 3.8002 105.748 5.30022 106.848 7.10022L110.748 12.7002Z" fill="#3957CC"/>
<path d="M196.748 20.3001H167.048L162.648 17.5001C162.348 17.3001 162.148 17.1001 161.948 16.9001C158.648 14.1001 148.048 13.4001 148.048 13.4001C148.048 13.4001 136.048 12.7001 128.748 12.7001C127.648 12.7001 126.648 12.6001 125.648 12.5001C121.048 12.0001 116.748 9.90008 113.248 6.80008L112.648 6.30008L109.148 3.20007C108.948 3.00007 108.648 2.8001 108.448 2.6001H158.548C169.448 2.6001 180.048 6.30009 188.748 13.0001L197.048 19.5001C197.248 19.8001 197.148 20.3001 196.748 20.3001Z" fill="#3957CC"/>
<path d="M71.0484 20.3002L70.6484 21.2002C69.4484 21.1002 67.9484 20.8002 66.4484 20.3002C63.9484 19.4002 61.3484 17.8002 59.4484 14.9002L59.0484 14.3002L57.9484 12.5002C56.5484 10.2002 54.3484 8.5002 51.7484 7.8002C47.2484 6.6002 39.3484 6.0002 33.5484 5.8002C30.1484 5.7002 27.4484 5.7002 26.3484 5.7002H34.4484C37.6484 5.7002 49.2484 5.8002 56.4484 7.8002C59.0484 8.5002 61.2484 10.2002 62.6484 12.5002L64.1484 14.9002C65.9484 17.6002 68.2484 19.2002 70.4484 20.1002C70.6484 20.2002 70.8484 20.3002 71.0484 20.3002Z" fill="#5D90DB"/>
<path d="M170.748 21.3H75.2484C74.0484 21.2 72.5483 20.9 71.0483 20.4C79.8483 21.4 167.948 21 167.948 21L167.748 20.9L166.948 20.4L162.548 17.6C162.248 17.4 162.048 17.2 161.848 17C158.548 14.2 147.948 13.5 147.948 13.5C147.948 13.5 135.948 12.8 128.648 12.8C127.548 12.8 126.548 12.7 125.548 12.6C120.948 12.1 116.648 9.99999 113.148 6.89999L112.548 6.39999L109.048 3.29999C108.848 3.09999 108.548 2.89998 108.348 2.69998C106.148 0.899982 103.348 0 100.548 0H102.848C105.648 0 108.448 0.899982 110.648 2.69998C110.848 2.89998 111.148 3.09999 111.348 3.29999L114.848 6.39999L115.448 6.89999C118.948 9.99999 123.248 12 127.848 12.6C128.848 12.7 129.848 12.8 130.948 12.8C138.248 12.8 150.248 13.5 150.248 13.5C150.248 13.5 160.848 14.2 164.148 17C164.348 17.2 164.648 17.4 164.848 17.6L167.648 19.4L169.248 20.4L170.748 21.3Z" fill="#5D90DB"/>
<path d="M73.7484 21.2999C72.5484 21.2999 74.0484 21.2999 73.6484 21.3999C73.5484 21.3999 73.4484 21.3999 73.3484 21.3999H71.5484C71.2484 21.3999 70.9484 21.3999 70.6484 21.2999L71.0484 20.3999C72.5484 20.8999 74.0484 21.1999 75.2484 21.2999H73.7484Z" fill="#5D90DB"/>
<path d="M110.748 12.7H105.848L102.048 6.99997C100.848 5.19997 98.5483 3.69998 95.9483 2.59998C93.3483 1.49998 90.4483 0.799951 88.2483 0.699951H96.1483C96.2483 0.699951 96.2483 0.699951 96.3483 0.699951C98.5483 0.899951 100.548 1.49998 102.348 2.59998C104.148 3.69998 105.748 5.19997 106.848 6.99997L110.748 12.7Z" fill="#5D90DB"/>
<path d="M75.2484 21.2999H70.6484L71.0484 20.3999C72.5484 20.8999 73.9484 21.0999 75.2484 21.2999Z" fill="#5D90DB"/>
<path d="M60.824 48.7V37.5H62.008V47.676H68.28V48.7H60.824ZM81.9449 44.492C81.9449 44.588 81.9289 44.716 81.9289 44.844H74.8889C75.0169 46.604 76.3609 47.772 78.2009 47.772C79.2249 47.772 80.1369 47.404 80.7769 46.668L81.4169 47.404C80.6649 48.3 79.4969 48.78 78.1689 48.78C75.5449 48.78 73.7529 46.988 73.7529 44.492C73.7529 41.996 75.4969 40.22 77.8649 40.22C80.2329 40.22 81.9449 41.964 81.9449 44.492ZM77.8649 41.196C76.2329 41.196 75.0329 42.348 74.8889 43.996H80.8569C80.7129 42.348 79.5129 41.196 77.8649 41.196ZM94.7729 40.284H95.8929L92.1489 48.7H90.9809L87.2529 40.284H88.4369L91.5889 47.452L94.7729 40.284ZM102.789 38.444C102.325 38.444 101.957 38.076 101.957 37.628C101.957 37.196 102.325 36.828 102.789 36.828C103.253 36.828 103.621 37.18 103.621 37.612C103.621 38.076 103.269 38.444 102.789 38.444ZM102.213 48.7V40.284H103.349V48.7H102.213ZM111.774 47.756H117.166V48.7H110.318V47.948L115.614 41.244H110.414V40.284H117.07V41.036L111.774 47.756ZM132.729 48.7L131.385 45.708H125.145L123.801 48.7H122.569L127.689 37.5H128.857L133.977 48.7H132.729ZM125.577 44.748H130.953L128.265 38.732L125.577 44.748ZM140.886 38.444C140.422 38.444 140.054 38.076 140.054 37.628C140.054 37.196 140.422 36.828 140.886 36.828C141.35 36.828 141.718 37.18 141.718 37.612C141.718 38.076 141.366 38.444 140.886 38.444ZM140.31 48.7V40.284H141.446V48.7H140.31ZM150.415 41.932C150.943 40.812 152.015 40.22 153.567 40.22V41.324C153.471 41.324 153.375 41.308 153.295 41.308C151.535 41.308 150.463 42.428 150.463 44.412V48.7H149.327V40.284H150.415V41.932Z" fill="white"/>
</svg>
